<?xml version="1.0" encoding="UTF-8" standalone="no"?>
<!DOCTYPE svg PUBLIC "-//W3C//DTD SVG 1.1//EN"
 "http://www.w3.org/Graphics/SVG/1.1/DTD/svg11.dtd">
<!-- Generated by graphviz version 5.0.0 (20220707.1540)
 -->
<!-- Title: StorageDiagram Pages: 1 -->
<svg width="1457pt" height="765pt"
 viewBox="0.00 0.00 1457.42 765.00" xmlns="http://www.w3.org/2000/svg" xmlns:xlink="http://www.w3.org/1999/xlink">
<g id="graph0" class="graph" transform="scale(1 1) rotate(0) translate(4 761)">
<title>StorageDiagram</title>
<polygon fill="white" stroke="transparent" points="-4,4 -4,-761 1453.42,-761 1453.42,4 -4,4"/>
<!-- 1 -->
<g id="node1" class="node">
<title>1</title>
<polygon fill="#f2f2f2" stroke="black" points="0,-0.5 0,-756.5 1449.42,-756.5 1449.42,-0.5 0,-0.5"/>
<text text-anchor="middle" x="724.71" y="-739.9" font-family="Courier New" font-size="14.00">FiatTokenV2_2 &lt;&lt;Contract&gt;&gt;</text>
<text text-anchor="middle" x="724.71" y="-723.1" font-family="Courier New" font-size="14.00">0x86E721b43d4ECFa71119Dd38c0f938A75Fdb57B3</text>
<polyline fill="none" stroke="black" points="0,-714.9 1449.42,-714.9 "/>
<text text-anchor="middle" x="24.8" y="-698.3" font-family="Courier New" font-size="14.00">slot</text>
<text text-anchor="middle" x="24.8" y="-681.5" font-family="Courier New" font-size="14.00"> &#160;</text>
<polyline fill="none" stroke="black" points="0,-673.3 49.61,-673.3 "/>
<text text-anchor="middle" x="24.8" y="-656.7" font-family="Courier New" font-size="14.00">0</text>
<text text-anchor="middle" x="24.8" y="-639.9" font-family="Courier New" font-size="14.00"> &#160;</text>
<polyline fill="none" stroke="black" points="0,-631.7 49.61,-631.7 "/>
<text text-anchor="middle" x="24.8" y="-615.1" font-family="Courier New" font-size="14.00">1</text>
<text text-anchor="middle" x="24.8" y="-598.3" font-family="Courier New" font-size="14.00"> &#160;</text>
<polyline fill="none" stroke="black" points="0,-590.1 49.61,-590.1 "/>
<text text-anchor="middle" x="24.8" y="-573.5" font-family="Courier New" font-size="14.00">2</text>
<text text-anchor="middle" x="24.8" y="-556.7" font-family="Courier New" font-size="14.00"> &#160;</text>
<polyline fill="none" stroke="black" points="0,-548.5 49.61,-548.5 "/>
<text text-anchor="middle" x="24.8" y="-531.9" font-family="Courier New" font-size="14.00">3 </text>
<polyline fill="none" stroke="black" points="0,-523.7 49.61,-523.7 "/>
<text text-anchor="middle" x="24.8" y="-507.1" font-family="Courier New" font-size="14.00">4</text>
<text text-anchor="middle" x="24.8" y="-490.3" font-family="Courier New" font-size="14.00"> &#160;</text>
<polyline fill="none" stroke="black" points="0,-482.1 49.61,-482.1 "/>
<text text-anchor="middle" x="24.8" y="-465.5" font-family="Courier New" font-size="14.00">5</text>
<text text-anchor="middle" x="24.8" y="-448.7" font-family="Courier New" font-size="14.00"> &#160;</text>
<polyline fill="none" stroke="black" points="0,-440.5 49.61,-440.5 "/>
<text text-anchor="middle" x="24.8" y="-423.9" font-family="Courier New" font-size="14.00">6</text>
<text text-anchor="middle" x="24.8" y="-407.1" font-family="Courier New" font-size="14.00"> &#160;</text>
<polyline fill="none" stroke="black" points="0,-398.9 49.61,-398.9 "/>
<text text-anchor="middle" x="24.8" y="-382.3" font-family="Courier New" font-size="14.00">7</text>
<text text-anchor="middle" x="24.8" y="-365.5" font-family="Courier New" font-size="14.00"> &#160;</text>
<polyline fill="none" stroke="black" points="0,-357.3 49.61,-357.3 "/>
<text text-anchor="middle" x="24.8" y="-340.7" font-family="Courier New" font-size="14.00">8</text>
<text text-anchor="middle" x="24.8" y="-323.9" font-family="Courier New" font-size="14.00"> &#160;</text>
<polyline fill="none" stroke="black" points="0,-315.7 49.61,-315.7 "/>
<text text-anchor="middle" x="24.8" y="-299.1" font-family="Courier New" font-size="14.00">9 </text>
<polyline fill="none" stroke="black" points="0,-290.9 49.61,-290.9 "/>
<text text-anchor="middle" x="24.8" y="-274.3" font-family="Courier New" font-size="14.00">10 </text>
<polyline fill="none" stroke="black" points="0,-266.1 49.61,-266.1 "/>
<text text-anchor="middle" x="24.8" y="-249.5" font-family="Courier New" font-size="14.00">11</text>
<text text-anchor="middle" x="24.8" y="-232.7" font-family="Courier New" font-size="14.00"> &#160;</text>
<polyline fill="none" stroke="black" points="0,-224.5 49.61,-224.5 "/>
<text text-anchor="middle" x="24.8" y="-207.9" font-family="Courier New" font-size="14.00">12 </text>
<polyline fill="none" stroke="black" points="0,-199.7 49.61,-199.7 "/>
<text text-anchor="middle" x="24.8" y="-183.1" font-family="Courier New" font-size="14.00">13 </text>
<polyline fill="none" stroke="black" points="0,-174.9 49.61,-174.9 "/>
<text text-anchor="middle" x="24.8" y="-158.3" font-family="Courier New" font-size="14.00">14</text>
<text text-anchor="middle" x="24.8" y="-141.5" font-family="Courier New" font-size="14.00"> &#160;</text>
<polyline fill="none" stroke="black" points="0,-133.3 49.61,-133.3 "/>
<text text-anchor="middle" x="24.8" y="-116.7" font-family="Courier New" font-size="14.00">15</text>
<text text-anchor="middle" x="24.8" y="-99.9" font-family="Courier New" font-size="14.00"> &#160;</text>
<polyline fill="none" stroke="black" points="0,-91.7 49.61,-91.7 "/>
<text text-anchor="middle" x="24.8" y="-75.1" font-family="Courier New" font-size="14.00">16 </text>
<polyline fill="none" stroke="black" points="0,-66.9 49.61,-66.9 "/>
<text text-anchor="middle" x="24.8" y="-50.3" font-family="Courier New" font-size="14.00">17 </text>
<polyline fill="none" stroke="black" points="0,-42.1 49.61,-42.1 "/>
<text text-anchor="middle" x="24.8" y="-25.5" font-family="Courier New" font-size="14.00">18</text>
<text text-anchor="middle" x="24.8" y="-8.7" font-family="Courier New" font-size="14.00"> </text>
<polyline fill="none" stroke="black" points="49.61,-0.5 49.61,-714.9 "/>
<text text-anchor="middle" x="334.85" y="-698.3" font-family="Courier New" font-size="14.00">value</text>
<text text-anchor="middle" x="334.85" y="-681.5" font-family="Courier New" font-size="14.00"> &#160;</text>
<polyline fill="none" stroke="black" points="49.61,-673.3 620.1,-673.3 "/>
<text text-anchor="middle" x="334.85" y="-656.7" font-family="Courier New" font-size="14.00">0x0000000000000000000000000000000000000000000000000000000000000001</text>
<text text-anchor="middle" x="334.85" y="-639.9" font-family="Courier New" font-size="14.00"> &#160;</text>
<polyline fill="none" stroke="black" points="49.61,-631.7 620.1,-631.7 "/>
<text text-anchor="middle" x="334.85" y="-615.1" font-family="Courier New" font-size="14.00">0x0000000000000000000000000000000000000000000000000000000000000001</text>
<text text-anchor="middle" x="334.85" y="-598.3" font-family="Courier New" font-size="14.00"> &#160;</text>
<polyline fill="none" stroke="black" points="49.61,-590.1 620.1,-590.1 "/>
<text text-anchor="middle" x="334.85" y="-573.5" font-family="Courier New" font-size="14.00">0x0000000000000000000000000000000000000000000000000000000000000001</text>
<text text-anchor="middle" x="334.85" y="-556.7" font-family="Courier New" font-size="14.00"> &#160;</text>
<polyline fill="none" stroke="black" points="49.61,-548.5 620.1,-548.5 "/>
<text text-anchor="middle" x="334.85" y="-531.9" font-family="Courier New" font-size="14.00"> </text>
<polyline fill="none" stroke="black" points="49.61,-523.7 620.1,-523.7 "/>
<text text-anchor="middle" x="334.85" y="-507.1" font-family="Courier New" font-size="14.00">0x0000000000000000000000000000000000000000000000000000000000000000</text>
<text text-anchor="middle" x="334.85" y="-490.3" font-family="Courier New" font-size="14.00"> &#160;</text>
<polyline fill="none" stroke="black" points="49.61,-482.1 620.1,-482.1 "/>
<text text-anchor="middle" x="334.85" y="-465.5" font-family="Courier New" font-size="14.00">0x0000000000000000000000000000000000000000000000000000000000000000</text>
<text text-anchor="middle" x="334.85" y="-448.7" font-family="Courier New" font-size="14.00"> &#160;</text>
<polyline fill="none" stroke="black" points="49.61,-440.5 620.1,-440.5 "/>
<text text-anchor="middle" x="334.85" y="-423.9" font-family="Courier New" font-size="14.00">0x0000000000000000000000000000000000000000000000000000000000000000</text>
<text text-anchor="middle" x="334.85" y="-407.1" font-family="Courier New" font-size="14.00"> &#160;</text>
<polyline fill="none" stroke="black" points="49.61,-398.9 620.1,-398.9 "/>
<text text-anchor="middle" x="334.85" y="-382.3" font-family="Courier New" font-size="14.00">0x0000000000000000000000000000000000000000000000000000000000000000</text>
<text text-anchor="middle" x="334.85" y="-365.5" font-family="Courier New" font-size="14.00"> &#160;</text>
<polyline fill="none" stroke="black" points="49.61,-357.3 620.1,-357.3 "/>
<text text-anchor="middle" x="334.85" y="-340.7" font-family="Courier New" font-size="14.00">0x0000000000000000000000010000000000000000000000000000000000000001</text>
<text text-anchor="middle" x="334.85" y="-323.9" font-family="Courier New" font-size="14.00"> &#160;</text>
<polyline fill="none" stroke="black" points="49.61,-315.7 620.1,-315.7 "/>
<text text-anchor="middle" x="334.85" y="-299.1" font-family="Courier New" font-size="14.00"> </text>
<polyline fill="none" stroke="black" points="49.61,-290.9 620.1,-290.9 "/>
<text text-anchor="middle" x="334.85" y="-274.3" font-family="Courier New" font-size="14.00"> </text>
<polyline fill="none" stroke="black" points="49.61,-266.1 620.1,-266.1 "/>
<text text-anchor="middle" x="334.85" y="-249.5" font-family="Courier New" font-size="14.00">0x0000000000000000000000000000000000000000000000000000000000000000</text>
<text text-anchor="middle" x="334.85" y="-232.7" font-family="Courier New" font-size="14.00"> &#160;</text>
<polyline fill="none" stroke="black" points="49.61,-224.5 620.1,-224.5 "/>
<text text-anchor="middle" x="334.85" y="-207.9" font-family="Courier New" font-size="14.00"> </text>
<polyline fill="none" stroke="black" points="49.61,-199.7 620.1,-199.7 "/>
<text text-anchor="middle" x="334.85" y="-183.1" font-family="Courier New" font-size="14.00"> </text>
<polyline fill="none" stroke="black" points="49.61,-174.9 620.1,-174.9 "/>
<text text-anchor="middle" x="334.85" y="-158.3" font-family="Courier New" font-size="14.00">0x0000000000000000000000000000000000000000000000000000000000000000</text>
<text text-anchor="middle" x="334.85" y="-141.5" font-family="Courier New" font-size="14.00"> &#160;</text>
<polyline fill="none" stroke="black" points="49.61,-133.3 620.1,-133.3 "/>
<text text-anchor="middle" x="334.85" y="-116.7" font-family="Courier New" font-size="14.00">0x2A2ED0475E65FE6560860DC13665127D263ED1FDC41AA654C061FEDD2592B129</text>
<text text-anchor="middle" x="334.85" y="-99.9" font-family="Courier New" font-size="14.00"> &#160;</text>
<polyline fill="none" stroke="black" points="49.61,-91.7 620.1,-91.7 "/>
<text text-anchor="middle" x="334.85" y="-75.1" font-family="Courier New" font-size="14.00"> </text>
<polyline fill="none" stroke="black" points="49.61,-66.9 620.1,-66.9 "/>
<text text-anchor="middle" x="334.85" y="-50.3" font-family="Courier New" font-size="14.00"> </text>
<polyline fill="none" stroke="black" points="49.61,-42.1 620.1,-42.1 "/>
<text text-anchor="middle" x="334.85" y="-25.5" font-family="Courier New" font-size="14.00">0x0000000000000000000000000000000000000000000000000000000000000003</text>
<text text-anchor="middle" x="334.85" y="-8.7" font-family="Courier New" font-size="14.00"> </text>
<polyline fill="none" stroke="black" points="620.1,-0.5 620.1,-714.9 "/>
<text text-anchor="middle" x="1034.76" y="-698.3" font-family="Courier New" font-size="14.00">type: &lt;inherited contract&gt;.variable (bytes)</text>
<text text-anchor="middle" x="1034.76" y="-681.5" font-family="Courier New" font-size="14.00">decoded data</text>
<polyline fill="none" stroke="black" points="620.1,-673.3 1449.42,-673.3 "/>
<text text-anchor="middle" x="768.31" y="-648.3" font-family="Courier New" font-size="14.00">unallocated (12)</text>
<polyline fill="none" stroke="black" points="916.52,-631.7 916.52,-673.3 "/>
<text text-anchor="middle" x="1182.85" y="-656.7" font-family="Courier New" font-size="14.00">address: Ownable._owner (20)</text>
<text text-anchor="middle" x="1182.85" y="-639.9" font-family="Courier New" font-size="14.00"> 0x0000000000000000000000000000000000000001 </text>
<polyline fill="none" stroke="black" points="620.1,-631.7 1449.42,-631.7 "/>
<text text-anchor="middle" x="706.31" y="-606.7" font-family="Courier New" font-size="14.00">unallocated (11)</text>
<polyline fill="none" stroke="black" points="792.52,-590.1 792.52,-631.7 "/>
<text text-anchor="middle" x="916.53" y="-615.1" font-family="Courier New" font-size="14.00">bool: Pausable.paused (1)</text>
<text text-anchor="middle" x="916.53" y="-598.3" font-family="Courier New" font-size="14.00"> false &#160;</text>
<polyline fill="none" stroke="black" points="1040.55,-590.1 1040.55,-631.7 "/>
<text text-anchor="middle" x="1244.88" y="-615.1" font-family="Courier New" font-size="14.00">address: Pausable.pauser (20)</text>
<text text-anchor="middle" x="1244.88" y="-598.3" font-family="Courier New" font-size="14.00"> 0x0000000000000000000000000000000000000001 </text>
<polyline fill="none" stroke="black" points="620.1,-590.1 1449.42,-590.1 "/>
<text text-anchor="middle" x="768.31" y="-565.1" font-family="Courier New" font-size="14.00">unallocated (12)</text>
<polyline fill="none" stroke="black" points="916.52,-548.5 916.52,-590.1 "/>
<text text-anchor="middle" x="1182.85" y="-573.5" font-family="Courier New" font-size="14.00">address: Blacklistable.blacklister (20)</text>
<text text-anchor="middle" x="1182.85" y="-556.7" font-family="Courier New" font-size="14.00"> 0x0000000000000000000000000000000000000001 </text>
<polyline fill="none" stroke="black" points="620.1,-548.5 1449.42,-548.5 "/>
<text text-anchor="middle" x="1034.64" y="-531.9" font-family="Courier New" font-size="14.00">mapping(address=&gt;bool): Blacklistable._deprecatedBlacklisted (32)</text>
<polyline fill="none" stroke="black" points="620.1,-523.7 1449.42,-523.7 "/>
<text text-anchor="middle" x="1034.42" y="-507.1" font-family="Courier New" font-size="14.00">string: FiatTokenV1.name (32)</text>
<text text-anchor="middle" x="1034.42" y="-490.3" font-family="Courier New" font-size="14.00"> &quot;&quot; </text>
<polyline fill="none" stroke="black" points="620.1,-482.1 1449.42,-482.1 "/>
<text text-anchor="middle" x="1034.32" y="-465.5" font-family="Courier New" font-size="14.00">string: FiatTokenV1.symbol (32)</text>
<text text-anchor="middle" x="1034.32" y="-448.7" font-family="Courier New" font-size="14.00"> &quot;&quot; </text>
<polyline fill="none" stroke="black" points="620.1,-440.5 1449.42,-440.5 "/>
<text text-anchor="middle" x="795.81" y="-415.5" font-family="Courier New" font-size="14.00">unallocated (31)</text>
<polyline fill="none" stroke="black" points="971.52,-398.9 971.52,-440.5 "/>
<text text-anchor="middle" x="1210.24" y="-423.9" font-family="Courier New" font-size="14.00">uint8: FiatTokenV1.decimals (1)</text>
<text text-anchor="middle" x="1210.24" y="-407.1" font-family="Courier New" font-size="14.00"> 0 </text>
<polyline fill="none" stroke="black" points="620.1,-398.9 1449.42,-398.9 "/>
<text text-anchor="middle" x="1034.72" y="-382.3" font-family="Courier New" font-size="14.00">string: FiatTokenV1.currency (32)</text>
<text text-anchor="middle" x="1034.72" y="-365.5" font-family="Courier New" font-size="14.00"> &quot;&quot; </text>
<polyline fill="none" stroke="black" points="620.1,-357.3 1449.42,-357.3 "/>
<text text-anchor="middle" x="695.31" y="-332.3" font-family="Courier New" font-size="14.00">unallocated (11)</text>
<polyline fill="none" stroke="black" points="770.52,-315.7 770.52,-357.3 "/>
<text text-anchor="middle" x="917.14" y="-340.7" font-family="Courier New" font-size="14.00">bool: FiatTokenV1.initialized (1)</text>
<text text-anchor="middle" x="917.14" y="-323.9" font-family="Courier New" font-size="14.00"> true &#160;</text>
<polyline fill="none" stroke="black" points="1063.76,-315.7 1063.76,-357.3 "/>
<text text-anchor="middle" x="1256.59" y="-340.7" font-family="Courier New" font-size="14.00">address: FiatTokenV1.masterMinter (20)</text>
<text text-anchor="middle" x="1256.59" y="-323.9" font-family="Courier New" font-size="14.00"> 0x0000000000000000000000000000000000000001 </text>
<polyline fill="none" stroke="black" points="620.1,-315.7 1449.42,-315.7 "/>
<text text-anchor="middle" x="1034.44" y="-299.1" font-family="Courier New" font-size="14.00">mapping(address=&gt;uint256): FiatTokenV1.balanceAndBlacklistStates (32)</text>
<polyline fill="none" stroke="black" points="620.1,-290.9 1449.42,-290.9 "/>
<text text-anchor="middle" x="1034.44" y="-274.3" font-family="Courier New" font-size="14.00">mapping(address=&gt;mapping(address=&gt;uint256)): FiatTokenV1.allowed (32)</text>
<polyline fill="none" stroke="black" points="620.1,-266.1 1449.42,-266.1 "/>
<text text-anchor="middle" x="1034.72" y="-249.5" font-family="Courier New" font-size="14.00">uint256: FiatTokenV1.totalSupply_ (32)</text>
<text text-anchor="middle" x="1034.72" y="-232.7" font-family="Courier New" font-size="14.00"> 0 </text>
<polyline fill="none" stroke="black" points="620.1,-224.5 1449.42,-224.5 "/>
<text text-anchor="middle" x="1034.73" y="-207.9" font-family="Courier New" font-size="14.00">mapping(address=&gt;bool): FiatTokenV1.minters (32)</text>
<polyline fill="none" stroke="black" points="620.1,-199.7 1449.42,-199.7 "/>
<text text-anchor="middle" x="1034.53" y="-183.1" font-family="Courier New" font-size="14.00">mapping(address=&gt;uint256): FiatTokenV1.minterAllowed (32)</text>
<polyline fill="none" stroke="black" points="620.1,-174.9 1449.42,-174.9 "/>
<text text-anchor="middle" x="768.31" y="-149.9" font-family="Courier New" font-size="14.00">unallocated (12)</text>
<polyline fill="none" stroke="black" points="916.52,-133.3 916.52,-174.9 "/>
<text text-anchor="middle" x="1182.85" y="-158.3" font-family="Courier New" font-size="14.00">address: Rescuable._rescuer (20)</text>
<text text-anchor="middle" x="1182.85" y="-141.5" font-family="Courier New" font-size="14.00"> 0x0000000000000000000000000000000000000000 </text>
<polyline fill="none" stroke="black" points="620.1,-133.3 1449.42,-133.3 "/>
<text text-anchor="middle" x="1034.74" y="-116.7" font-family="Courier New" font-size="14.00">bytes32: EIP712Domain._DEPRECATED_CACHED_DOMAIN_SEPARATOR (32)</text>
<text text-anchor="middle" x="1034.74" y="-99.9" font-family="Courier New" font-size="14.00"> 0x2A2ED0475E65FE6560860DC13665127D263ED1FDC41AA654C061FEDD2592B129 </text>
<polyline fill="none" stroke="black" points="620.1,-91.7 1449.42,-91.7 "/>
<text text-anchor="middle" x="1034.65" y="-75.1" font-family="Courier New" font-size="14.00">mapping(address=&gt;mapping(bytes32=&gt;bool)): EIP3009._authorizationStates (32)</text>
<polyline fill="none" stroke="black" points="620.1,-66.9 1449.42,-66.9 "/>
<text text-anchor="middle" x="1034.73" y="-50.3" font-family="Courier New" font-size="14.00">mapping(address=&gt;uint256): EIP2612._permitNonces (32)</text>
<polyline fill="none" stroke="black" points="620.1,-42.1 1449.42,-42.1 "/>
<text text-anchor="middle" x="772.81" y="-17.1" font-family="Courier New" font-size="14.00">unallocated (31)</text>
<polyline fill="none" stroke="black" points="925.52,-0.5 925.52,-42.1 "/>
<text text-anchor="middle" x="1187.45" y="-25.5" font-family="Courier New" font-size="14.00">uint8: FiatTokenV2._initializedVersion (1)</text>
<text text-anchor="middle" x="1187.45" y="-8.7" font-family="Courier New" font-size="14.00"> 3 </text>
</g>
</g>
</svg>
