<?xml version="1.0" encoding="UTF-8" standalone="no"?>
<!DOCTYPE svg PUBLIC "-//W3C//DTD SVG 1.1//EN"
 "http://www.w3.org/Graphics/SVG/1.1/DTD/svg11.dtd">
<!-- Generated by graphviz version 5.0.0 (20220707.1540)
 -->
<!-- Title: StorageDiagram Pages: 1 -->
<svg width="2348pt" height="1207pt"
 viewBox="0.00 0.00 2347.95 1206.60" xmlns="http://www.w3.org/2000/svg" xmlns:xlink="http://www.w3.org/1999/xlink">
<g id="graph0" class="graph" transform="scale(1 1) rotate(0) translate(4 1202.6)">
<title>StorageDiagram</title>
<polygon fill="white" stroke="transparent" points="-4,4 -4,-1202.6 2343.95,-1202.6 2343.95,4 -4,4"/>
<!-- 6 -->
<g id="node1" class="node">
<title>6</title>
<polygon fill="#f2f2f2" stroke="black" points="0,-179.1 0,-1001.5 1449.42,-1001.5 1449.42,-179.1 0,-179.1"/>
<text text-anchor="middle" x="724.71" y="-984.9" font-family="Courier New" font-size="14.00">ArbFiatToken &lt;&lt;Contract&gt;&gt;</text>
<text text-anchor="middle" x="724.71" y="-968.1" font-family="Courier New" font-size="14.00">0x1efb3f88bc88f03fd1804a5c53b7141bbef5ded8</text>
<polyline fill="none" stroke="black" points="0,-959.9 1449.42,-959.9 "/>
<text text-anchor="middle" x="41.61" y="-943.3" font-family="Courier New" font-size="14.00">slot</text>
<text text-anchor="middle" x="41.61" y="-926.5" font-family="Courier New" font-size="14.00"> &#160;</text>
<polyline fill="none" stroke="black" points="0,-918.3 83.21,-918.3 "/>
<text text-anchor="middle" x="41.61" y="-901.7" font-family="Courier New" font-size="14.00">0</text>
<text text-anchor="middle" x="41.61" y="-884.9" font-family="Courier New" font-size="14.00"> &#160;</text>
<polyline fill="none" stroke="black" points="0,-876.7 83.21,-876.7 "/>
<text text-anchor="middle" x="41.61" y="-860.1" font-family="Courier New" font-size="14.00">1&#45;50 </text>
<polyline fill="none" stroke="black" points="0,-851.9 83.21,-851.9 "/>
<text text-anchor="middle" x="41.61" y="-835.3" font-family="Courier New" font-size="14.00">51 </text>
<polyline fill="none" stroke="black" points="0,-827.1 83.21,-827.1 "/>
<text text-anchor="middle" x="41.61" y="-810.5" font-family="Courier New" font-size="14.00">52 </text>
<polyline fill="none" stroke="black" points="0,-802.3 83.21,-802.3 "/>
<text text-anchor="middle" x="41.61" y="-785.7" font-family="Courier New" font-size="14.00">53</text>
<text text-anchor="middle" x="41.61" y="-768.9" font-family="Courier New" font-size="14.00"> &#160;</text>
<polyline fill="none" stroke="black" points="0,-760.7 83.21,-760.7 "/>
<text text-anchor="middle" x="41.61" y="-744.1" font-family="Courier New" font-size="14.00">54</text>
<text text-anchor="middle" x="41.61" y="-727.3" font-family="Courier New" font-size="14.00"> &#160;</text>
<polyline fill="none" stroke="black" points="0,-719.1 83.21,-719.1 "/>
<text text-anchor="middle" x="41.61" y="-702.5" font-family="Courier New" font-size="14.00">55</text>
<text text-anchor="middle" x="41.61" y="-685.7" font-family="Courier New" font-size="14.00"> &#160;</text>
<polyline fill="none" stroke="black" points="0,-677.5 83.21,-677.5 "/>
<text text-anchor="middle" x="41.61" y="-660.9" font-family="Courier New" font-size="14.00">56</text>
<text text-anchor="middle" x="41.61" y="-644.1" font-family="Courier New" font-size="14.00"> &#160;</text>
<polyline fill="none" stroke="black" points="0,-635.9 83.21,-635.9 "/>
<text text-anchor="middle" x="41.61" y="-619.3" font-family="Courier New" font-size="14.00">57&#45;100 </text>
<polyline fill="none" stroke="black" points="0,-611.1 83.21,-611.1 "/>
<text text-anchor="middle" x="41.61" y="-594.5" font-family="Courier New" font-size="14.00">101</text>
<text text-anchor="middle" x="41.61" y="-577.7" font-family="Courier New" font-size="14.00"> &#160;</text>
<polyline fill="none" stroke="black" points="0,-569.5 83.21,-569.5 "/>
<text text-anchor="middle" x="41.61" y="-552.9" font-family="Courier New" font-size="14.00">102</text>
<text text-anchor="middle" x="41.61" y="-536.1" font-family="Courier New" font-size="14.00"> &#160;</text>
<polyline fill="none" stroke="black" points="0,-527.9 83.21,-527.9 "/>
<text text-anchor="middle" x="41.61" y="-511.3" font-family="Courier New" font-size="14.00">103&#45;152 </text>
<polyline fill="none" stroke="black" points="0,-503.1 83.21,-503.1 "/>
<text text-anchor="middle" x="41.61" y="-486.5" font-family="Courier New" font-size="14.00">153 </text>
<polyline fill="none" stroke="black" points="0,-478.3 83.21,-478.3 "/>
<text text-anchor="middle" x="41.61" y="-461.7" font-family="Courier New" font-size="14.00">154</text>
<text text-anchor="middle" x="41.61" y="-444.9" font-family="Courier New" font-size="14.00"> &#160;</text>
<polyline fill="none" stroke="black" points="0,-436.7 83.21,-436.7 "/>
<text text-anchor="middle" x="41.61" y="-420.1" font-family="Courier New" font-size="14.00">155&#45;203 </text>
<polyline fill="none" stroke="black" points="0,-411.9 83.21,-411.9 "/>
<text text-anchor="middle" x="41.61" y="-395.3" font-family="Courier New" font-size="14.00">204</text>
<text text-anchor="middle" x="41.61" y="-378.5" font-family="Courier New" font-size="14.00"> &#160;</text>
<polyline fill="none" stroke="black" points="0,-370.3 83.21,-370.3 "/>
<text text-anchor="middle" x="41.61" y="-353.7" font-family="Courier New" font-size="14.00">205</text>
<text text-anchor="middle" x="41.61" y="-336.9" font-family="Courier New" font-size="14.00"> &#160;</text>
<polyline fill="none" stroke="black" points="0,-328.7 83.21,-328.7 "/>
<text text-anchor="middle" x="41.61" y="-312.1" font-family="Courier New" font-size="14.00">206</text>
<text text-anchor="middle" x="41.61" y="-295.3" font-family="Courier New" font-size="14.00"> &#160;</text>
<polyline fill="none" stroke="black" points="0,-287.1 83.21,-287.1 "/>
<text text-anchor="middle" x="41.61" y="-270.5" font-family="Courier New" font-size="14.00">207</text>
<text text-anchor="middle" x="41.61" y="-253.7" font-family="Courier New" font-size="14.00"> &#160;</text>
<polyline fill="none" stroke="black" points="0,-245.5 83.21,-245.5 "/>
<text text-anchor="middle" x="41.61" y="-228.9" font-family="Courier New" font-size="14.00">208</text>
<text text-anchor="middle" x="41.61" y="-212.1" font-family="Courier New" font-size="14.00"> &#160;</text>
<polyline fill="none" stroke="black" points="0,-203.9 83.21,-203.9 "/>
<text text-anchor="middle" x="41.61" y="-187.3" font-family="Courier New" font-size="14.00">209</text>
<polyline fill="none" stroke="black" points="83.21,-179.1 83.21,-959.9 "/>
<text text-anchor="middle" x="368.46" y="-943.3" font-family="Courier New" font-size="14.00">value</text>
<text text-anchor="middle" x="368.46" y="-926.5" font-family="Courier New" font-size="14.00"> &#160;</text>
<polyline fill="none" stroke="black" points="83.21,-918.3 653.7,-918.3 "/>
<text text-anchor="middle" x="368.46" y="-901.7" font-family="Courier New" font-size="14.00">0x0000000000000000000000000000000000000000000000000000000000000001</text>
<text text-anchor="middle" x="368.46" y="-884.9" font-family="Courier New" font-size="14.00"> &#160;</text>
<polyline fill="none" stroke="black" points="83.21,-876.7 653.7,-876.7 "/>
<text text-anchor="middle" x="368.46" y="-860.1" font-family="Courier New" font-size="14.00"> </text>
<polyline fill="none" stroke="black" points="83.21,-851.9 653.7,-851.9 "/>
<text text-anchor="middle" x="368.46" y="-835.3" font-family="Courier New" font-size="14.00"> </text>
<polyline fill="none" stroke="black" points="83.21,-827.1 653.7,-827.1 "/>
<text text-anchor="middle" x="368.46" y="-810.5" font-family="Courier New" font-size="14.00"> </text>
<polyline fill="none" stroke="black" points="83.21,-802.3 653.7,-802.3 "/>
<text text-anchor="middle" x="368.46" y="-785.7" font-family="Courier New" font-size="14.00">0x0000000000000000000000000000000000000000000000000000000000000000</text>
<text text-anchor="middle" x="368.46" y="-768.9" font-family="Courier New" font-size="14.00"> &#160;</text>
<polyline fill="none" stroke="black" points="83.21,-760.7 653.7,-760.7 "/>
<text text-anchor="middle" x="368.46" y="-744.1" font-family="Courier New" font-size="14.00">0x55534420436F696E20286172623129000000000000000000000000000000001E</text>
<text text-anchor="middle" x="368.46" y="-727.3" font-family="Courier New" font-size="14.00"> &#160;</text>
<polyline fill="none" stroke="black" points="83.21,-719.1 653.7,-719.1 "/>
<text text-anchor="middle" x="368.46" y="-702.5" font-family="Courier New" font-size="14.00">0x5553444300000000000000000000000000000000000000000000000000000008</text>
<text text-anchor="middle" x="368.46" y="-685.7" font-family="Courier New" font-size="14.00"> &#160;</text>
<polyline fill="none" stroke="black" points="83.21,-677.5 653.7,-677.5 "/>
<text text-anchor="middle" x="368.46" y="-660.9" font-family="Courier New" font-size="14.00">0x0000000000000000000000000000000000000000000000000000000000000006</text>
<text text-anchor="middle" x="368.46" y="-644.1" font-family="Courier New" font-size="14.00"> &#160;</text>
<polyline fill="none" stroke="black" points="83.21,-635.9 653.7,-635.9 "/>
<text text-anchor="middle" x="368.46" y="-619.3" font-family="Courier New" font-size="14.00"> </text>
<polyline fill="none" stroke="black" points="83.21,-611.1 653.7,-611.1 "/>
<text text-anchor="middle" x="368.46" y="-594.5" font-family="Courier New" font-size="14.00">0x1B704790B2E9AE3D28284FB5AFA0BF8ABB28B6D0E8113AE8A1415B91E2851A0C</text>
<text text-anchor="middle" x="368.46" y="-577.7" font-family="Courier New" font-size="14.00"> &#160;</text>
<polyline fill="none" stroke="black" points="83.21,-569.5 653.7,-569.5 "/>
<text text-anchor="middle" x="368.46" y="-552.9" font-family="Courier New" font-size="14.00">0xC89EFDAA54C0F20C7ADF612882DF0950F5A951637E0307CDCB4C672F298B8BC6</text>
<text text-anchor="middle" x="368.46" y="-536.1" font-family="Courier New" font-size="14.00"> &#160;</text>
<polyline fill="none" stroke="black" points="83.21,-527.9 653.7,-527.9 "/>
<text text-anchor="middle" x="368.46" y="-511.3" font-family="Courier New" font-size="14.00"> </text>
<polyline fill="none" stroke="black" points="83.21,-503.1 653.7,-503.1 "/>
<text text-anchor="middle" x="368.46" y="-486.5" font-family="Courier New" font-size="14.00"> </text>
<polyline fill="none" stroke="black" points="83.21,-478.3 653.7,-478.3 "/>
<text text-anchor="middle" x="368.46" y="-461.7" font-family="Courier New" font-size="14.00">0x6E71EDAE12B1B97F4D1F60370FEF10105FA2FAAE0126114A169C64845D6126C9</text>
<text text-anchor="middle" x="368.46" y="-444.9" font-family="Courier New" font-size="14.00"> &#160;</text>
<polyline fill="none" stroke="black" points="83.21,-436.7 653.7,-436.7 "/>
<text text-anchor="middle" x="368.46" y="-420.1" font-family="Courier New" font-size="14.00"> </text>
<polyline fill="none" stroke="black" points="83.21,-411.9 653.7,-411.9 "/>
<text text-anchor="middle" x="368.46" y="-395.3" font-family="Courier New" font-size="14.00">0x000000000000000000000000096760F208390250649E3E8763348E783AEF5562</text>
<text text-anchor="middle" x="368.46" y="-378.5" font-family="Courier New" font-size="14.00"> &#160;</text>
<polyline fill="none" stroke="black" points="83.21,-370.3 653.7,-370.3 "/>
<text text-anchor="middle" x="368.46" y="-353.7" font-family="Courier New" font-size="14.00">0x000000000000000000000000A0B86991C6218B36C1D19D4A2E9EB0CE3606EB48</text>
<text text-anchor="middle" x="368.46" y="-336.9" font-family="Courier New" font-size="14.00"> &#160;</text>
<polyline fill="none" stroke="black" points="83.21,-328.7 653.7,-328.7 "/>
<text text-anchor="middle" x="368.46" y="-312.1" font-family="Courier New" font-size="14.00">0x000000000000000000000000BB1A241DCBD6A3894CB61F659034874DC9CF65D4</text>
<text text-anchor="middle" x="368.46" y="-295.3" font-family="Courier New" font-size="14.00"> &#160;</text>
<polyline fill="none" stroke="black" points="83.21,-287.1 653.7,-287.1 "/>
<text text-anchor="middle" x="368.46" y="-270.5" font-family="Courier New" font-size="14.00">0x0000000000000000000000000000000000000000000000000000000000000000</text>
<text text-anchor="middle" x="368.46" y="-253.7" font-family="Courier New" font-size="14.00"> &#160;</text>
<polyline fill="none" stroke="black" points="83.21,-245.5 653.7,-245.5 "/>
<text text-anchor="middle" x="368.46" y="-228.9" font-family="Courier New" font-size="14.00">0x0000000000000000000000000000000000000000000000000000000000000000</text>
<text text-anchor="middle" x="368.46" y="-212.1" font-family="Courier New" font-size="14.00"> &#160;</text>
<polyline fill="none" stroke="black" points="83.21,-203.9 653.7,-203.9 "/>
<text text-anchor="middle" x="368.46" y="-187.3" font-family="Courier New" font-size="14.00"> </text>
<polyline fill="none" stroke="black" points="653.7,-179.1 653.7,-959.9 "/>
<text text-anchor="middle" x="1051.56" y="-943.3" font-family="Courier New" font-size="14.00">type: &lt;inherited contract&gt;.variable (bytes)</text>
<text text-anchor="middle" x="1051.56" y="-926.5" font-family="Courier New" font-size="14.00">decoded data</text>
<polyline fill="none" stroke="black" points="653.7,-918.3 1449.42,-918.3 "/>
<text text-anchor="middle" x="728.91" y="-893.3" font-family="Courier New" font-size="14.00">unallocated (30)</text>
<polyline fill="none" stroke="black" points="804.12,-876.7 804.12,-918.3 "/>
<text text-anchor="middle" x="967.55" y="-901.7" font-family="Courier New" font-size="14.00">bool: Initializable._initializing (1)</text>
<text text-anchor="middle" x="967.55" y="-884.9" font-family="Courier New" font-size="14.00"> false &#160;</text>
<polyline fill="none" stroke="black" points="1130.97,-876.7 1130.97,-918.3 "/>
<text text-anchor="middle" x="1290.2" y="-901.7" font-family="Courier New" font-size="14.00">bool: Initializable._initialized (1)</text>
<text text-anchor="middle" x="1290.2" y="-884.9" font-family="Courier New" font-size="14.00"> true </text>
<polyline fill="none" stroke="black" points="653.7,-876.7 1449.42,-876.7 "/>
<text text-anchor="middle" x="1051.53" y="-860.1" font-family="Courier New" font-size="14.00">uint256[50]: ContextUpgradeable.__gap (1600)</text>
<polyline fill="none" stroke="black" points="653.7,-851.9 1449.42,-851.9 "/>
<text text-anchor="middle" x="1051.34" y="-835.3" font-family="Courier New" font-size="14.00">mapping(address=&gt;uint256): ERC20Upgradeable._balances (32)</text>
<polyline fill="none" stroke="black" points="653.7,-827.1 1449.42,-827.1 "/>
<text text-anchor="middle" x="1051.35" y="-810.5" font-family="Courier New" font-size="14.00">mapping(address=&gt;mapping(address=&gt;uint256)): ERC20Upgradeable._allowances (32)</text>
<polyline fill="none" stroke="black" points="653.7,-802.3 1449.42,-802.3 "/>
<text text-anchor="middle" x="1051.33" y="-785.7" font-family="Courier New" font-size="14.00">uint256: ERC20Upgradeable._totalSupply (32)</text>
<text text-anchor="middle" x="1051.33" y="-768.9" font-family="Courier New" font-size="14.00"> 0 </text>
<polyline fill="none" stroke="black" points="653.7,-760.7 1449.42,-760.7 "/>
<text text-anchor="middle" x="1051.23" y="-744.1" font-family="Courier New" font-size="14.00">string: ERC20Upgradeable._name (32)</text>
<text text-anchor="middle" x="1051.23" y="-727.3" font-family="Courier New" font-size="14.00"> &quot;USD Coin (arb1)&quot; </text>
<polyline fill="none" stroke="black" points="653.7,-719.1 1449.42,-719.1 "/>
<text text-anchor="middle" x="1051.13" y="-702.5" font-family="Courier New" font-size="14.00">string: ERC20Upgradeable._symbol (32)</text>
<text text-anchor="middle" x="1051.13" y="-685.7" font-family="Courier New" font-size="14.00"> &quot;USDC&quot; </text>
<polyline fill="none" stroke="black" points="653.7,-677.5 1449.42,-677.5 "/>
<text text-anchor="middle" x="808.41" y="-652.5" font-family="Courier New" font-size="14.00">unallocated (31)</text>
<polyline fill="none" stroke="black" points="963.12,-635.9 963.12,-677.5 "/>
<text text-anchor="middle" x="1206.05" y="-660.9" font-family="Courier New" font-size="14.00">uint8: ERC20Upgradeable._decimals (1)</text>
<text text-anchor="middle" x="1206.05" y="-644.1" font-family="Courier New" font-size="14.00"> 6 </text>
<polyline fill="none" stroke="black" points="653.7,-635.9 1449.42,-635.9 "/>
<text text-anchor="middle" x="1051.13" y="-619.3" font-family="Courier New" font-size="14.00">uint256[44]: ERC20Upgradeable.__gap (1408)</text>
<polyline fill="none" stroke="black" points="653.7,-611.1 1449.42,-611.1 "/>
<text text-anchor="middle" x="1051.35" y="-594.5" font-family="Courier New" font-size="14.00">bytes32: EIP712Upgradeable._HASHED_NAME (32)</text>
<text text-anchor="middle" x="1051.35" y="-577.7" font-family="Courier New" font-size="14.00"> 0x1B704790B2E9AE3D28284FB5AFA0BF8ABB28B6D0E8113AE8A1415B91E2851A0C </text>
<polyline fill="none" stroke="black" points="653.7,-569.5 1449.42,-569.5 "/>
<text text-anchor="middle" x="1051.35" y="-552.9" font-family="Courier New" font-size="14.00">bytes32: EIP712Upgradeable._HASHED_VERSION (32)</text>
<text text-anchor="middle" x="1051.35" y="-536.1" font-family="Courier New" font-size="14.00"> 0xC89EFDAA54C0F20C7ADF612882DF0950F5A951637E0307CDCB4C672F298B8BC6 </text>
<polyline fill="none" stroke="black" points="653.7,-527.9 1449.42,-527.9 "/>
<text text-anchor="middle" x="1051.33" y="-511.3" font-family="Courier New" font-size="14.00">uint256[50]: EIP712Upgradeable.__gap (1600)</text>
<polyline fill="none" stroke="black" points="653.7,-503.1 1449.42,-503.1 "/>
<text text-anchor="middle" x="1051.16" y="-486.5" font-family="Courier New" font-size="14.00">mapping(address=&gt;CountersUpgradeable.Counter): ERC20PermitUpgradeable._nonces (32)</text>
<polyline fill="none" stroke="black" points="653.7,-478.3 1449.42,-478.3 "/>
<text text-anchor="middle" x="1051.35" y="-461.7" font-family="Courier New" font-size="14.00">bytes32: ERC20PermitUpgradeable._PERMIT_TYPEHASH (32)</text>
<text text-anchor="middle" x="1051.35" y="-444.9" font-family="Courier New" font-size="14.00"> 0x6E71EDAE12B1B97F4D1F60370FEF10105FA2FAAE0126114A169C64845D6126C9 </text>
<polyline fill="none" stroke="black" points="653.7,-436.7 1449.42,-436.7 "/>
<text text-anchor="middle" x="1051.33" y="-420.1" font-family="Courier New" font-size="14.00">uint256[49]: ERC20PermitUpgradeable.__gap (1568)</text>
<polyline fill="none" stroke="black" points="653.7,-411.9 1449.42,-411.9 "/>
<text text-anchor="middle" x="791.41" y="-386.9" font-family="Courier New" font-size="14.00">unallocated (12)</text>
<polyline fill="none" stroke="black" points="929.12,-370.3 929.12,-411.9 "/>
<text text-anchor="middle" x="1189.15" y="-395.3" font-family="Courier New" font-size="14.00">address: StandardArbERC20.gatewayAddress (20)</text>
<text text-anchor="middle" x="1189.15" y="-378.5" font-family="Courier New" font-size="14.00"> 0x096760F208390250649E3e8763348E783AEF5562 </text>
<polyline fill="none" stroke="black" points="653.7,-370.3 1449.42,-370.3 "/>
<text text-anchor="middle" x="793.41" y="-345.3" font-family="Courier New" font-size="14.00">unallocated (12)</text>
<polyline fill="none" stroke="black" points="933.12,-328.7 933.12,-370.3 "/>
<text text-anchor="middle" x="1190.95" y="-353.7" font-family="Courier New" font-size="14.00">address: StandardArbERC20.l1Address (20)</text>
<text text-anchor="middle" x="1190.95" y="-336.9" font-family="Courier New" font-size="14.00"> 0xA0b86991c6218b36c1d19D4a2e9Eb0cE3606eB48 </text>
<polyline fill="none" stroke="black" points="653.7,-328.7 1449.42,-328.7 "/>
<text text-anchor="middle" x="793.41" y="-303.7" font-family="Courier New" font-size="14.00">unallocated (12)</text>
<polyline fill="none" stroke="black" points="933.12,-287.1 933.12,-328.7 "/>
<text text-anchor="middle" x="1190.95" y="-312.1" font-family="Courier New" font-size="14.00">address: Ownable._owner (20)</text>
<text text-anchor="middle" x="1190.95" y="-295.3" font-family="Courier New" font-size="14.00"> 0xBB1a241DCBd6A3894cB61F659034874Dc9CF65D4 </text>
<polyline fill="none" stroke="black" points="653.7,-287.1 1449.42,-287.1 "/>
<text text-anchor="middle" x="732.91" y="-262.1" font-family="Courier New" font-size="14.00">unallocated (11)</text>
<polyline fill="none" stroke="black" points="812.12,-245.5 812.12,-287.1 "/>
<text text-anchor="middle" x="933.34" y="-270.5" font-family="Courier New" font-size="14.00">bool: Pausable._paused (1)</text>
<text text-anchor="middle" x="933.34" y="-253.7" font-family="Courier New" font-size="14.00"> false &#160;</text>
<polyline fill="none" stroke="black" points="1054.56,-245.5 1054.56,-287.1 "/>
<text text-anchor="middle" x="1251.89" y="-270.5" font-family="Courier New" font-size="14.00">address: Pausable._pauser (20)</text>
<text text-anchor="middle" x="1251.89" y="-253.7" font-family="Courier New" font-size="14.00"> 0x0000000000000000000000000000000000000000 </text>
<polyline fill="none" stroke="black" points="653.7,-245.5 1449.42,-245.5 "/>
<text text-anchor="middle" x="793.41" y="-220.5" font-family="Courier New" font-size="14.00">unallocated (12)</text>
<polyline fill="none" stroke="black" points="933.12,-203.9 933.12,-245.5 "/>
<text text-anchor="middle" x="1190.95" y="-228.9" font-family="Courier New" font-size="14.00">address: Blacklistable._blacklister (20)</text>
<text text-anchor="middle" x="1190.95" y="-212.1" font-family="Courier New" font-size="14.00"> 0x0000000000000000000000000000000000000000 </text>
<polyline fill="none" stroke="black" points="653.7,-203.9 1449.42,-203.9 "/>
<text text-anchor="middle" x="1051.24" y="-187.3" font-family="Courier New" font-size="14.00">mapping(address=&gt;bool): Blacklistable._blacklisted (32)</text>
</g>
<!-- 1 -->
<g id="node2" class="node">
<title>1</title>
<polygon fill="#f2f2f2" stroke="black" points="1498.02,-940.5 1498.02,-1198.1 2327.35,-1198.1 2327.35,-940.5 1498.02,-940.5"/>
<text text-anchor="middle" x="1912.69" y="-1181.5" font-family="Courier New" font-size="14.00">uint256[50]: __gap &lt;&lt;Array&gt;&gt;</text>
<polyline fill="none" stroke="black" points="1498.02,-1173.3 2327.35,-1173.3 "/>
<text text-anchor="middle" x="1527.03" y="-1156.7" font-family="Courier New" font-size="14.00">slot</text>
<text text-anchor="middle" x="1527.03" y="-1139.9" font-family="Courier New" font-size="14.00"> &#160;</text>
<polyline fill="none" stroke="black" points="1498.02,-1131.7 1556.03,-1131.7 "/>
<text text-anchor="middle" x="1527.03" y="-1115.1" font-family="Courier New" font-size="14.00">1</text>
<text text-anchor="middle" x="1527.03" y="-1098.3" font-family="Courier New" font-size="14.00"> &#160;</text>
<polyline fill="none" stroke="black" points="1498.02,-1090.1 1556.03,-1090.1 "/>
<text text-anchor="middle" x="1527.03" y="-1073.5" font-family="Courier New" font-size="14.00">2</text>
<text text-anchor="middle" x="1527.03" y="-1056.7" font-family="Courier New" font-size="14.00"> &#160;</text>
<polyline fill="none" stroke="black" points="1498.02,-1048.5 1556.03,-1048.5 "/>
<text text-anchor="middle" x="1527.03" y="-1031.9" font-family="Courier New" font-size="14.00">3&#45;48 </text>
<polyline fill="none" stroke="black" points="1498.02,-1023.7 1556.03,-1023.7 "/>
<text text-anchor="middle" x="1527.03" y="-1007.1" font-family="Courier New" font-size="14.00">49</text>
<text text-anchor="middle" x="1527.03" y="-990.3" font-family="Courier New" font-size="14.00"> &#160;</text>
<polyline fill="none" stroke="black" points="1498.02,-982.1 1556.03,-982.1 "/>
<text text-anchor="middle" x="1527.03" y="-965.5" font-family="Courier New" font-size="14.00">50</text>
<text text-anchor="middle" x="1527.03" y="-948.7" font-family="Courier New" font-size="14.00"> </text>
<polyline fill="none" stroke="black" points="1556.03,-940.5 1556.03,-1173.3 "/>
<text text-anchor="middle" x="1841.28" y="-1156.7" font-family="Courier New" font-size="14.00">value</text>
<text text-anchor="middle" x="1841.28" y="-1139.9" font-family="Courier New" font-size="14.00"> &#160;</text>
<polyline fill="none" stroke="black" points="1556.03,-1131.7 2126.52,-1131.7 "/>
<text text-anchor="middle" x="1841.28" y="-1115.1" font-family="Courier New" font-size="14.00">0x0000000000000000000000000000000000000000000000000000000000000000</text>
<text text-anchor="middle" x="1841.28" y="-1098.3" font-family="Courier New" font-size="14.00"> &#160;</text>
<polyline fill="none" stroke="black" points="1556.03,-1090.1 2126.52,-1090.1 "/>
<text text-anchor="middle" x="1841.28" y="-1073.5" font-family="Courier New" font-size="14.00">0x0000000000000000000000000000000000000000000000000000000000000000</text>
<text text-anchor="middle" x="1841.28" y="-1056.7" font-family="Courier New" font-size="14.00"> &#160;</text>
<polyline fill="none" stroke="black" points="1556.03,-1048.5 2126.52,-1048.5 "/>
<text text-anchor="middle" x="1841.28" y="-1031.9" font-family="Courier New" font-size="14.00"> </text>
<polyline fill="none" stroke="black" points="1556.03,-1023.7 2126.52,-1023.7 "/>
<text text-anchor="middle" x="1841.28" y="-1007.1" font-family="Courier New" font-size="14.00">0x0000000000000000000000000000000000000000000000000000000000000000</text>
<text text-anchor="middle" x="1841.28" y="-990.3" font-family="Courier New" font-size="14.00"> &#160;</text>
<polyline fill="none" stroke="black" points="1556.03,-982.1 2126.52,-982.1 "/>
<text text-anchor="middle" x="1841.28" y="-965.5" font-family="Courier New" font-size="14.00">0x0000000000000000000000000000000000000000000000000000000000000000</text>
<text text-anchor="middle" x="1841.28" y="-948.7" font-family="Courier New" font-size="14.00"> </text>
<polyline fill="none" stroke="black" points="2126.52,-940.5 2126.52,-1173.3 "/>
<text text-anchor="middle" x="2226.94" y="-1156.7" font-family="Courier New" font-size="14.00">type: variable (bytes)</text>
<text text-anchor="middle" x="2226.94" y="-1139.9" font-family="Courier New" font-size="14.00">decoded data</text>
<polyline fill="none" stroke="black" points="2126.52,-1131.7 2327.35,-1131.7 "/>
<text text-anchor="middle" x="2226.93" y="-1115.1" font-family="Courier New" font-size="14.00">uint256 (32)</text>
<text text-anchor="middle" x="2226.93" y="-1098.3" font-family="Courier New" font-size="14.00"> 0 </text>
<polyline fill="none" stroke="black" points="2126.52,-1090.1 2327.35,-1090.1 "/>
<text text-anchor="middle" x="2226.93" y="-1073.5" font-family="Courier New" font-size="14.00">uint256 (32)</text>
<text text-anchor="middle" x="2226.93" y="-1056.7" font-family="Courier New" font-size="14.00"> 0 </text>
<polyline fill="none" stroke="black" points="2126.52,-1048.5 2327.35,-1048.5 "/>
<text text-anchor="middle" x="2226.73" y="-1031.9" font-family="Courier New" font-size="14.00">&#45;&#45;&#45;&#45; (1472)</text>
<polyline fill="none" stroke="black" points="2126.52,-1023.7 2327.35,-1023.7 "/>
<text text-anchor="middle" x="2226.93" y="-1007.1" font-family="Courier New" font-size="14.00">uint256 (32)</text>
<text text-anchor="middle" x="2226.93" y="-990.3" font-family="Courier New" font-size="14.00"> 0 </text>
<polyline fill="none" stroke="black" points="2126.52,-982.1 2327.35,-982.1 "/>
<text text-anchor="middle" x="2226.93" y="-965.5" font-family="Courier New" font-size="14.00">uint256 (32)</text>
<text text-anchor="middle" x="2226.93" y="-948.7" font-family="Courier New" font-size="14.00"> 0 </text>
</g>
<!-- 6&#45;&gt;1 -->
<g id="edge1" class="edge">
<title>6:8&#45;&gt;1</title>
<path fill="none" stroke="black" d="M1449.42,-864.3C1482.84,-864.3 1459.72,-908.95 1485.42,-930.3 1486.99,-931.61 1488.58,-932.9 1490.17,-934.18"/>
<polygon fill="black" stroke="black" points="1488.22,-937.09 1498.26,-940.49 1492.53,-931.58 1488.22,-937.09"/>
</g>
<!-- 2 -->
<g id="node3" class="node">
<title>2</title>
<polygon fill="#f2f2f2" stroke="black" points="1493.82,-663.5 1493.82,-921.1 2331.55,-921.1 2331.55,-663.5 1493.82,-663.5"/>
<text text-anchor="middle" x="1912.69" y="-904.5" font-family="Courier New" font-size="14.00">uint256[44]: __gap &lt;&lt;Array&gt;&gt;</text>
<polyline fill="none" stroke="black" points="1493.82,-896.3 2331.55,-896.3 "/>
<text text-anchor="middle" x="1527.03" y="-879.7" font-family="Courier New" font-size="14.00">slot</text>
<text text-anchor="middle" x="1527.03" y="-862.9" font-family="Courier New" font-size="14.00"> &#160;</text>
<polyline fill="none" stroke="black" points="1493.82,-854.7 1560.23,-854.7 "/>
<text text-anchor="middle" x="1527.03" y="-838.1" font-family="Courier New" font-size="14.00">57</text>
<text text-anchor="middle" x="1527.03" y="-821.3" font-family="Courier New" font-size="14.00"> &#160;</text>
<polyline fill="none" stroke="black" points="1493.82,-813.1 1560.23,-813.1 "/>
<text text-anchor="middle" x="1527.03" y="-796.5" font-family="Courier New" font-size="14.00">58</text>
<text text-anchor="middle" x="1527.03" y="-779.7" font-family="Courier New" font-size="14.00"> &#160;</text>
<polyline fill="none" stroke="black" points="1493.82,-771.5 1560.23,-771.5 "/>
<text text-anchor="middle" x="1527.03" y="-754.9" font-family="Courier New" font-size="14.00">59&#45;98 </text>
<polyline fill="none" stroke="black" points="1493.82,-746.7 1560.23,-746.7 "/>
<text text-anchor="middle" x="1527.03" y="-730.1" font-family="Courier New" font-size="14.00">99</text>
<text text-anchor="middle" x="1527.03" y="-713.3" font-family="Courier New" font-size="14.00"> &#160;</text>
<polyline fill="none" stroke="black" points="1493.82,-705.1 1560.23,-705.1 "/>
<text text-anchor="middle" x="1527.03" y="-688.5" font-family="Courier New" font-size="14.00">100</text>
<text text-anchor="middle" x="1527.03" y="-671.7" font-family="Courier New" font-size="14.00"> </text>
<polyline fill="none" stroke="black" points="1560.23,-663.5 1560.23,-896.3 "/>
<text text-anchor="middle" x="1845.48" y="-879.7" font-family="Courier New" font-size="14.00">value</text>
<text text-anchor="middle" x="1845.48" y="-862.9" font-family="Courier New" font-size="14.00"> &#160;</text>
<polyline fill="none" stroke="black" points="1560.23,-854.7 2130.72,-854.7 "/>
<text text-anchor="middle" x="1845.48" y="-838.1" font-family="Courier New" font-size="14.00">0x0000000000000000000000000000000000000000000000000000000000000000</text>
<text text-anchor="middle" x="1845.48" y="-821.3" font-family="Courier New" font-size="14.00"> &#160;</text>
<polyline fill="none" stroke="black" points="1560.23,-813.1 2130.72,-813.1 "/>
<text text-anchor="middle" x="1845.48" y="-796.5" font-family="Courier New" font-size="14.00">0x0000000000000000000000000000000000000000000000000000000000000000</text>
<text text-anchor="middle" x="1845.48" y="-779.7" font-family="Courier New" font-size="14.00"> &#160;</text>
<polyline fill="none" stroke="black" points="1560.23,-771.5 2130.72,-771.5 "/>
<text text-anchor="middle" x="1845.48" y="-754.9" font-family="Courier New" font-size="14.00"> </text>
<polyline fill="none" stroke="black" points="1560.23,-746.7 2130.72,-746.7 "/>
<text text-anchor="middle" x="1845.48" y="-730.1" font-family="Courier New" font-size="14.00">0x0000000000000000000000000000000000000000000000000000000000000000</text>
<text text-anchor="middle" x="1845.48" y="-713.3" font-family="Courier New" font-size="14.00"> &#160;</text>
<polyline fill="none" stroke="black" points="1560.23,-705.1 2130.72,-705.1 "/>
<text text-anchor="middle" x="1845.48" y="-688.5" font-family="Courier New" font-size="14.00">0x0000000000000000000000000000000000000000000000000000000000000000</text>
<text text-anchor="middle" x="1845.48" y="-671.7" font-family="Courier New" font-size="14.00"> </text>
<polyline fill="none" stroke="black" points="2130.72,-663.5 2130.72,-896.3 "/>
<text text-anchor="middle" x="2231.14" y="-879.7" font-family="Courier New" font-size="14.00">type: variable (bytes)</text>
<text text-anchor="middle" x="2231.14" y="-862.9" font-family="Courier New" font-size="14.00">decoded data</text>
<polyline fill="none" stroke="black" points="2130.72,-854.7 2331.55,-854.7 "/>
<text text-anchor="middle" x="2231.13" y="-838.1" font-family="Courier New" font-size="14.00">uint256 (32)</text>
<text text-anchor="middle" x="2231.13" y="-821.3" font-family="Courier New" font-size="14.00"> 0 </text>
<polyline fill="none" stroke="black" points="2130.72,-813.1 2331.55,-813.1 "/>
<text text-anchor="middle" x="2231.13" y="-796.5" font-family="Courier New" font-size="14.00">uint256 (32)</text>
<text text-anchor="middle" x="2231.13" y="-779.7" font-family="Courier New" font-size="14.00"> 0 </text>
<polyline fill="none" stroke="black" points="2130.72,-771.5 2331.55,-771.5 "/>
<text text-anchor="middle" x="2230.93" y="-754.9" font-family="Courier New" font-size="14.00">&#45;&#45;&#45;&#45; (1280)</text>
<polyline fill="none" stroke="black" points="2130.72,-746.7 2331.55,-746.7 "/>
<text text-anchor="middle" x="2231.13" y="-730.1" font-family="Courier New" font-size="14.00">uint256 (32)</text>
<text text-anchor="middle" x="2231.13" y="-713.3" font-family="Courier New" font-size="14.00"> 0 </text>
<polyline fill="none" stroke="black" points="2130.72,-705.1 2331.55,-705.1 "/>
<text text-anchor="middle" x="2231.13" y="-688.5" font-family="Courier New" font-size="14.00">uint256 (32)</text>
<text text-anchor="middle" x="2231.13" y="-671.7" font-family="Courier New" font-size="14.00"> 0 </text>
</g>
<!-- 6&#45;&gt;2 -->
<g id="edge2" class="edge">
<title>6:20&#45;&gt;2</title>
<path fill="none" stroke="black" d="M1449.42,-623.3C1470.25,-623.3 1467.2,-643.22 1485.42,-653.3 1488.73,-655.13 1492.06,-656.93 1495.41,-658.72"/>
<polygon fill="black" stroke="black" points="1493.87,-661.86 1504.35,-663.4 1497.12,-655.66 1493.87,-661.86"/>
</g>
<!-- 3 -->
<g id="node4" class="node">
<title>3</title>
<polygon fill="#f2f2f2" stroke="black" points="1485.42,-386.5 1485.42,-644.1 2339.95,-644.1 2339.95,-386.5 1485.42,-386.5"/>
<text text-anchor="middle" x="1912.69" y="-627.5" font-family="Courier New" font-size="14.00">uint256[50]: __gap &lt;&lt;Array&gt;&gt;</text>
<polyline fill="none" stroke="black" points="1485.42,-619.3 2339.95,-619.3 "/>
<text text-anchor="middle" x="1527.03" y="-602.7" font-family="Courier New" font-size="14.00">slot</text>
<text text-anchor="middle" x="1527.03" y="-585.9" font-family="Courier New" font-size="14.00"> &#160;</text>
<polyline fill="none" stroke="black" points="1485.42,-577.7 1568.63,-577.7 "/>
<text text-anchor="middle" x="1527.03" y="-561.1" font-family="Courier New" font-size="14.00">103</text>
<text text-anchor="middle" x="1527.03" y="-544.3" font-family="Courier New" font-size="14.00"> &#160;</text>
<polyline fill="none" stroke="black" points="1485.42,-536.1 1568.63,-536.1 "/>
<text text-anchor="middle" x="1527.03" y="-519.5" font-family="Courier New" font-size="14.00">104</text>
<text text-anchor="middle" x="1527.03" y="-502.7" font-family="Courier New" font-size="14.00"> &#160;</text>
<polyline fill="none" stroke="black" points="1485.42,-494.5 1568.63,-494.5 "/>
<text text-anchor="middle" x="1527.03" y="-477.9" font-family="Courier New" font-size="14.00">105&#45;150 </text>
<polyline fill="none" stroke="black" points="1485.42,-469.7 1568.63,-469.7 "/>
<text text-anchor="middle" x="1527.03" y="-453.1" font-family="Courier New" font-size="14.00">151</text>
<text text-anchor="middle" x="1527.03" y="-436.3" font-family="Courier New" font-size="14.00"> &#160;</text>
<polyline fill="none" stroke="black" points="1485.42,-428.1 1568.63,-428.1 "/>
<text text-anchor="middle" x="1527.03" y="-411.5" font-family="Courier New" font-size="14.00">152</text>
<text text-anchor="middle" x="1527.03" y="-394.7" font-family="Courier New" font-size="14.00"> </text>
<polyline fill="none" stroke="black" points="1568.63,-386.5 1568.63,-619.3 "/>
<text text-anchor="middle" x="1853.88" y="-602.7" font-family="Courier New" font-size="14.00">value</text>
<text text-anchor="middle" x="1853.88" y="-585.9" font-family="Courier New" font-size="14.00"> &#160;</text>
<polyline fill="none" stroke="black" points="1568.63,-577.7 2139.12,-577.7 "/>
<text text-anchor="middle" x="1853.88" y="-561.1" font-family="Courier New" font-size="14.00">0x0000000000000000000000000000000000000000000000000000000000000000</text>
<text text-anchor="middle" x="1853.88" y="-544.3" font-family="Courier New" font-size="14.00"> &#160;</text>
<polyline fill="none" stroke="black" points="1568.63,-536.1 2139.12,-536.1 "/>
<text text-anchor="middle" x="1853.88" y="-519.5" font-family="Courier New" font-size="14.00">0x0000000000000000000000000000000000000000000000000000000000000000</text>
<text text-anchor="middle" x="1853.88" y="-502.7" font-family="Courier New" font-size="14.00"> &#160;</text>
<polyline fill="none" stroke="black" points="1568.63,-494.5 2139.12,-494.5 "/>
<text text-anchor="middle" x="1853.88" y="-477.9" font-family="Courier New" font-size="14.00"> </text>
<polyline fill="none" stroke="black" points="1568.63,-469.7 2139.12,-469.7 "/>
<text text-anchor="middle" x="1853.88" y="-453.1" font-family="Courier New" font-size="14.00">0x0000000000000000000000000000000000000000000000000000000000000000</text>
<text text-anchor="middle" x="1853.88" y="-436.3" font-family="Courier New" font-size="14.00"> &#160;</text>
<polyline fill="none" stroke="black" points="1568.63,-428.1 2139.12,-428.1 "/>
<text text-anchor="middle" x="1853.88" y="-411.5" font-family="Courier New" font-size="14.00">0x0000000000000000000000000000000000000000000000000000000000000000</text>
<text text-anchor="middle" x="1853.88" y="-394.7" font-family="Courier New" font-size="14.00"> </text>
<polyline fill="none" stroke="black" points="2139.12,-386.5 2139.12,-619.3 "/>
<text text-anchor="middle" x="2239.54" y="-602.7" font-family="Courier New" font-size="14.00">type: variable (bytes)</text>
<text text-anchor="middle" x="2239.54" y="-585.9" font-family="Courier New" font-size="14.00">decoded data</text>
<polyline fill="none" stroke="black" points="2139.12,-577.7 2339.95,-577.7 "/>
<text text-anchor="middle" x="2239.53" y="-561.1" font-family="Courier New" font-size="14.00">uint256 (32)</text>
<text text-anchor="middle" x="2239.53" y="-544.3" font-family="Courier New" font-size="14.00"> 0 </text>
<polyline fill="none" stroke="black" points="2139.12,-536.1 2339.95,-536.1 "/>
<text text-anchor="middle" x="2239.53" y="-519.5" font-family="Courier New" font-size="14.00">uint256 (32)</text>
<text text-anchor="middle" x="2239.53" y="-502.7" font-family="Courier New" font-size="14.00"> 0 </text>
<polyline fill="none" stroke="black" points="2139.12,-494.5 2339.95,-494.5 "/>
<text text-anchor="middle" x="2239.33" y="-477.9" font-family="Courier New" font-size="14.00">&#45;&#45;&#45;&#45; (1472)</text>
<polyline fill="none" stroke="black" points="2139.12,-469.7 2339.95,-469.7 "/>
<text text-anchor="middle" x="2239.53" y="-453.1" font-family="Courier New" font-size="14.00">uint256 (32)</text>
<text text-anchor="middle" x="2239.53" y="-436.3" font-family="Courier New" font-size="14.00"> 0 </text>
<polyline fill="none" stroke="black" points="2139.12,-428.1 2339.95,-428.1 "/>
<text text-anchor="middle" x="2239.53" y="-411.5" font-family="Courier New" font-size="14.00">uint256 (32)</text>
<text text-anchor="middle" x="2239.53" y="-394.7" font-family="Courier New" font-size="14.00"> 0 </text>
</g>
<!-- 6&#45;&gt;3 -->
<g id="edge3" class="edge">
<title>6:28&#45;&gt;3</title>
<path fill="none" stroke="black" d="M1449.42,-515.3C1457.93,-515.3 1466.53,-515.3 1475.19,-515.3"/>
<polygon fill="black" stroke="black" points="1475.39,-518.8 1485.39,-515.3 1475.39,-511.8 1475.39,-518.8"/>
</g>
<!-- 4 -->
<g id="node5" class="node">
<title>4</title>
<polygon fill="#f2f2f2" stroke="black" points="1750.07,-276.7 1750.07,-367.9 2075.31,-367.9 2075.31,-276.7 1750.07,-276.7"/>
<text text-anchor="middle" x="1912.69" y="-351.3" font-family="Courier New" font-size="14.00">Counter &lt;&lt;Struct&gt;&gt;</text>
<polyline fill="none" stroke="black" points="1750.07,-343.1 2075.31,-343.1 "/>
<text text-anchor="middle" x="1783.27" y="-326.5" font-family="Courier New" font-size="14.00">offset</text>
<text text-anchor="middle" x="1783.27" y="-309.7" font-family="Courier New" font-size="14.00"> &#160;</text>
<polyline fill="none" stroke="black" points="1750.07,-301.5 1816.47,-301.5 "/>
<text text-anchor="middle" x="1783.27" y="-284.9" font-family="Courier New" font-size="14.00">0</text>
<polyline fill="none" stroke="black" points="1816.47,-276.7 1816.47,-343.1 "/>
<text text-anchor="middle" x="1845.48" y="-326.5" font-family="Courier New" font-size="14.00">value</text>
<text text-anchor="middle" x="1845.48" y="-309.7" font-family="Courier New" font-size="14.00"> &#160;</text>
<polyline fill="none" stroke="black" points="1816.47,-301.5 1874.48,-301.5 "/>
<text text-anchor="middle" x="1845.48" y="-284.9" font-family="Courier New" font-size="14.00"> </text>
<polyline fill="none" stroke="black" points="1874.48,-276.7 1874.48,-343.1 "/>
<text text-anchor="middle" x="1974.9" y="-326.5" font-family="Courier New" font-size="14.00">type: variable (bytes)</text>
<text text-anchor="middle" x="1974.9" y="-309.7" font-family="Courier New" font-size="14.00">decoded data</text>
<polyline fill="none" stroke="black" points="1874.48,-301.5 2075.31,-301.5 "/>
<text text-anchor="middle" x="1974.49" y="-284.9" font-family="Courier New" font-size="14.00">uint256: _value (32)</text>
</g>
<!-- 6&#45;&gt;4 -->
<g id="edge4" class="edge">
<title>6:30&#45;&gt;4</title>
<path fill="none" stroke="black" d="M1449.42,-490.3C1502.13,-490.3 1444.95,-411.07 1485.42,-377.3 1555,-319.25 1654.49,-303.89 1739.86,-303.79"/>
<polygon fill="black" stroke="black" points="1739.91,-307.3 1749.93,-303.85 1739.95,-300.3 1739.91,-307.3"/>
</g>
<!-- 5 -->
<g id="node6" class="node">
<title>5</title>
<polygon fill="#f2f2f2" stroke="black" points="1485.42,-0.5 1485.42,-258.1 2339.95,-258.1 2339.95,-0.5 1485.42,-0.5"/>
<text text-anchor="middle" x="1912.69" y="-241.5" font-family="Courier New" font-size="14.00">uint256[49]: __gap &lt;&lt;Array&gt;&gt;</text>
<polyline fill="none" stroke="black" points="1485.42,-233.3 2339.95,-233.3 "/>
<text text-anchor="middle" x="1527.03" y="-216.7" font-family="Courier New" font-size="14.00">slot</text>
<text text-anchor="middle" x="1527.03" y="-199.9" font-family="Courier New" font-size="14.00"> &#160;</text>
<polyline fill="none" stroke="black" points="1485.42,-191.7 1568.63,-191.7 "/>
<text text-anchor="middle" x="1527.03" y="-175.1" font-family="Courier New" font-size="14.00">155</text>
<text text-anchor="middle" x="1527.03" y="-158.3" font-family="Courier New" font-size="14.00"> &#160;</text>
<polyline fill="none" stroke="black" points="1485.42,-150.1 1568.63,-150.1 "/>
<text text-anchor="middle" x="1527.03" y="-133.5" font-family="Courier New" font-size="14.00">156</text>
<text text-anchor="middle" x="1527.03" y="-116.7" font-family="Courier New" font-size="14.00"> &#160;</text>
<polyline fill="none" stroke="black" points="1485.42,-108.5 1568.63,-108.5 "/>
<text text-anchor="middle" x="1527.03" y="-91.9" font-family="Courier New" font-size="14.00">157&#45;201 </text>
<polyline fill="none" stroke="black" points="1485.42,-83.7 1568.63,-83.7 "/>
<text text-anchor="middle" x="1527.03" y="-67.1" font-family="Courier New" font-size="14.00">202</text>
<text text-anchor="middle" x="1527.03" y="-50.3" font-family="Courier New" font-size="14.00"> &#160;</text>
<polyline fill="none" stroke="black" points="1485.42,-42.1 1568.63,-42.1 "/>
<text text-anchor="middle" x="1527.03" y="-25.5" font-family="Courier New" font-size="14.00">203</text>
<text text-anchor="middle" x="1527.03" y="-8.7" font-family="Courier New" font-size="14.00"> </text>
<polyline fill="none" stroke="black" points="1568.63,-0.5 1568.63,-233.3 "/>
<text text-anchor="middle" x="1853.88" y="-216.7" font-family="Courier New" font-size="14.00">value</text>
<text text-anchor="middle" x="1853.88" y="-199.9" font-family="Courier New" font-size="14.00"> &#160;</text>
<polyline fill="none" stroke="black" points="1568.63,-191.7 2139.12,-191.7 "/>
<text text-anchor="middle" x="1853.88" y="-175.1" font-family="Courier New" font-size="14.00">0x0000000000000000000000000000000000000000000000000000000000000000</text>
<text text-anchor="middle" x="1853.88" y="-158.3" font-family="Courier New" font-size="14.00"> &#160;</text>
<polyline fill="none" stroke="black" points="1568.63,-150.1 2139.12,-150.1 "/>
<text text-anchor="middle" x="1853.88" y="-133.5" font-family="Courier New" font-size="14.00">0x0000000000000000000000000000000000000000000000000000000000000000</text>
<text text-anchor="middle" x="1853.88" y="-116.7" font-family="Courier New" font-size="14.00"> &#160;</text>
<polyline fill="none" stroke="black" points="1568.63,-108.5 2139.12,-108.5 "/>
<text text-anchor="middle" x="1853.88" y="-91.9" font-family="Courier New" font-size="14.00"> </text>
<polyline fill="none" stroke="black" points="1568.63,-83.7 2139.12,-83.7 "/>
<text text-anchor="middle" x="1853.88" y="-67.1" font-family="Courier New" font-size="14.00">0x0000000000000000000000000000000000000000000000000000000000000000</text>
<text text-anchor="middle" x="1853.88" y="-50.3" font-family="Courier New" font-size="14.00"> &#160;</text>
<polyline fill="none" stroke="black" points="1568.63,-42.1 2139.12,-42.1 "/>
<text text-anchor="middle" x="1853.88" y="-25.5" font-family="Courier New" font-size="14.00">0x0000000000000000000000000000000000000000000000000000000000000000</text>
<text text-anchor="middle" x="1853.88" y="-8.7" font-family="Courier New" font-size="14.00"> </text>
<polyline fill="none" stroke="black" points="2139.12,-0.5 2139.12,-233.3 "/>
<text text-anchor="middle" x="2239.54" y="-216.7" font-family="Courier New" font-size="14.00">type: variable (bytes)</text>
<text text-anchor="middle" x="2239.54" y="-199.9" font-family="Courier New" font-size="14.00">decoded data</text>
<polyline fill="none" stroke="black" points="2139.12,-191.7 2339.95,-191.7 "/>
<text text-anchor="middle" x="2239.53" y="-175.1" font-family="Courier New" font-size="14.00">uint256 (32)</text>
<text text-anchor="middle" x="2239.53" y="-158.3" font-family="Courier New" font-size="14.00"> 0 </text>
<polyline fill="none" stroke="black" points="2139.12,-150.1 2339.95,-150.1 "/>
<text text-anchor="middle" x="2239.53" y="-133.5" font-family="Courier New" font-size="14.00">uint256 (32)</text>
<text text-anchor="middle" x="2239.53" y="-116.7" font-family="Courier New" font-size="14.00"> 0 </text>
<polyline fill="none" stroke="black" points="2139.12,-108.5 2339.95,-108.5 "/>
<text text-anchor="middle" x="2239.33" y="-91.9" font-family="Courier New" font-size="14.00">&#45;&#45;&#45;&#45; (1440)</text>
<polyline fill="none" stroke="black" points="2139.12,-83.7 2339.95,-83.7 "/>
<text text-anchor="middle" x="2239.53" y="-67.1" font-family="Courier New" font-size="14.00">uint256 (32)</text>
<text text-anchor="middle" x="2239.53" y="-50.3" font-family="Courier New" font-size="14.00"> 0 </text>
<polyline fill="none" stroke="black" points="2139.12,-42.1 2339.95,-42.1 "/>
<text text-anchor="middle" x="2239.53" y="-25.5" font-family="Courier New" font-size="14.00">uint256 (32)</text>
<text text-anchor="middle" x="2239.53" y="-8.7" font-family="Courier New" font-size="14.00"> 0 </text>
</g>
<!-- 6&#45;&gt;5 -->
<g id="edge5" class="edge">
<title>6:37&#45;&gt;5</title>
<path fill="none" stroke="black" d="M1449.42,-424.3C1521.01,-424.3 1437.07,-320.09 1485.42,-267.3 1485.85,-266.83 1486.29,-266.36 1486.72,-265.89"/>
<polygon fill="black" stroke="black" points="1489.47,-268.09 1493.89,-258.46 1484.43,-263.23 1489.47,-268.09"/>
</g>
</g>
</svg>
