<?xml version="1.0" encoding="UTF-8" standalone="no"?>
<!DOCTYPE svg PUBLIC "-//W3C//DTD SVG 1.1//EN"
 "http://www.w3.org/Graphics/SVG/1.1/DTD/svg11.dtd">
<!-- Generated by graphviz version 5.0.0 (20220707.1540)
 -->
<!-- Title: StorageDiagram Pages: 1 -->
<svg width="2892pt" height="1334pt"
 viewBox="0.00 0.00 2891.63 1333.80" xmlns="http://www.w3.org/2000/svg" xmlns:xlink="http://www.w3.org/1999/xlink">
<g id="graph0" class="graph" transform="scale(1 1) rotate(0) translate(4 1329.8)">
<title>StorageDiagram</title>
<polygon fill="white" stroke="transparent" points="-4,4 -4,-1329.8 2887.63,-1329.8 2887.63,4 -4,4"/>
<!-- 7 -->
<g id="node1" class="node">
<title>7</title>
<polygon fill="#f2f2f2" stroke="black" points="0,-346.7 0,-1044.3 1474.63,-1044.3 1474.63,-346.7 0,-346.7"/>
<text text-anchor="middle" x="737.31" y="-1027.7" font-family="Courier New" font-size="14.00">StandardArbERC20 &lt;&lt;Contract&gt;&gt;</text>
<text text-anchor="middle" x="737.31" y="-1010.9" font-family="Courier New" font-size="14.00">0x3f770ac673856f105b586bb393d122721265ad46</text>
<polyline fill="none" stroke="black" points="0,-1002.7 1474.63,-1002.7 "/>
<text text-anchor="middle" x="41.61" y="-986.1" font-family="Courier New" font-size="14.00">slot</text>
<text text-anchor="middle" x="41.61" y="-969.3" font-family="Courier New" font-size="14.00"> &#160;</text>
<polyline fill="none" stroke="black" points="0,-961.1 83.21,-961.1 "/>
<text text-anchor="middle" x="41.61" y="-944.5" font-family="Courier New" font-size="14.00">0</text>
<text text-anchor="middle" x="41.61" y="-927.7" font-family="Courier New" font-size="14.00"> &#160;</text>
<polyline fill="none" stroke="black" points="0,-919.5 83.21,-919.5 "/>
<text text-anchor="middle" x="41.61" y="-902.9" font-family="Courier New" font-size="14.00">1&#45;50 </text>
<polyline fill="none" stroke="black" points="0,-894.7 83.21,-894.7 "/>
<text text-anchor="middle" x="41.61" y="-878.1" font-family="Courier New" font-size="14.00">51 </text>
<polyline fill="none" stroke="black" points="0,-869.9 83.21,-869.9 "/>
<text text-anchor="middle" x="41.61" y="-853.3" font-family="Courier New" font-size="14.00">52 </text>
<polyline fill="none" stroke="black" points="0,-845.1 83.21,-845.1 "/>
<text text-anchor="middle" x="41.61" y="-828.5" font-family="Courier New" font-size="14.00">53</text>
<text text-anchor="middle" x="41.61" y="-811.7" font-family="Courier New" font-size="14.00"> &#160;</text>
<polyline fill="none" stroke="black" points="0,-803.5 83.21,-803.5 "/>
<text text-anchor="middle" x="41.61" y="-786.9" font-family="Courier New" font-size="14.00">54</text>
<text text-anchor="middle" x="41.61" y="-770.1" font-family="Courier New" font-size="14.00"> &#160;</text>
<polyline fill="none" stroke="black" points="0,-761.9 83.21,-761.9 "/>
<text text-anchor="middle" x="41.61" y="-745.3" font-family="Courier New" font-size="14.00">55</text>
<text text-anchor="middle" x="41.61" y="-728.5" font-family="Courier New" font-size="14.00"> &#160;</text>
<polyline fill="none" stroke="black" points="0,-720.3 83.21,-720.3 "/>
<text text-anchor="middle" x="41.61" y="-703.7" font-family="Courier New" font-size="14.00">56</text>
<text text-anchor="middle" x="41.61" y="-686.9" font-family="Courier New" font-size="14.00"> &#160;</text>
<polyline fill="none" stroke="black" points="0,-678.7 83.21,-678.7 "/>
<text text-anchor="middle" x="41.61" y="-662.1" font-family="Courier New" font-size="14.00">57&#45;100 </text>
<polyline fill="none" stroke="black" points="0,-653.9 83.21,-653.9 "/>
<text text-anchor="middle" x="41.61" y="-637.3" font-family="Courier New" font-size="14.00">101</text>
<text text-anchor="middle" x="41.61" y="-620.5" font-family="Courier New" font-size="14.00"> &#160;</text>
<polyline fill="none" stroke="black" points="0,-612.3 83.21,-612.3 "/>
<text text-anchor="middle" x="41.61" y="-595.7" font-family="Courier New" font-size="14.00">102</text>
<text text-anchor="middle" x="41.61" y="-578.9" font-family="Courier New" font-size="14.00"> &#160;</text>
<polyline fill="none" stroke="black" points="0,-570.7 83.21,-570.7 "/>
<text text-anchor="middle" x="41.61" y="-554.1" font-family="Courier New" font-size="14.00">103&#45;152 </text>
<polyline fill="none" stroke="black" points="0,-545.9 83.21,-545.9 "/>
<text text-anchor="middle" x="41.61" y="-529.3" font-family="Courier New" font-size="14.00">153 </text>
<polyline fill="none" stroke="black" points="0,-521.1 83.21,-521.1 "/>
<text text-anchor="middle" x="41.61" y="-504.5" font-family="Courier New" font-size="14.00">154</text>
<text text-anchor="middle" x="41.61" y="-487.7" font-family="Courier New" font-size="14.00"> &#160;</text>
<polyline fill="none" stroke="black" points="0,-479.5 83.21,-479.5 "/>
<text text-anchor="middle" x="41.61" y="-462.9" font-family="Courier New" font-size="14.00">155&#45;203 </text>
<polyline fill="none" stroke="black" points="0,-454.7 83.21,-454.7 "/>
<text text-anchor="middle" x="41.61" y="-438.1" font-family="Courier New" font-size="14.00">204</text>
<text text-anchor="middle" x="41.61" y="-421.3" font-family="Courier New" font-size="14.00"> &#160;</text>
<polyline fill="none" stroke="black" points="0,-413.1 83.21,-413.1 "/>
<text text-anchor="middle" x="41.61" y="-396.5" font-family="Courier New" font-size="14.00">205</text>
<text text-anchor="middle" x="41.61" y="-379.7" font-family="Courier New" font-size="14.00"> &#160;</text>
<polyline fill="none" stroke="black" points="0,-371.5 83.21,-371.5 "/>
<text text-anchor="middle" x="41.61" y="-354.9" font-family="Courier New" font-size="14.00">206</text>
<polyline fill="none" stroke="black" points="83.21,-346.7 83.21,-1002.7 "/>
<text text-anchor="middle" x="368.46" y="-986.1" font-family="Courier New" font-size="14.00">value</text>
<text text-anchor="middle" x="368.46" y="-969.3" font-family="Courier New" font-size="14.00"> &#160;</text>
<polyline fill="none" stroke="black" points="83.21,-961.1 653.7,-961.1 "/>
<text text-anchor="middle" x="368.46" y="-944.5" font-family="Courier New" font-size="14.00">0x0000000000000000000000000000000000000000000000000000000000000001</text>
<text text-anchor="middle" x="368.46" y="-927.7" font-family="Courier New" font-size="14.00"> &#160;</text>
<polyline fill="none" stroke="black" points="83.21,-919.5 653.7,-919.5 "/>
<text text-anchor="middle" x="368.46" y="-902.9" font-family="Courier New" font-size="14.00"> </text>
<polyline fill="none" stroke="black" points="83.21,-894.7 653.7,-894.7 "/>
<text text-anchor="middle" x="368.46" y="-878.1" font-family="Courier New" font-size="14.00"> </text>
<polyline fill="none" stroke="black" points="83.21,-869.9 653.7,-869.9 "/>
<text text-anchor="middle" x="368.46" y="-853.3" font-family="Courier New" font-size="14.00"> </text>
<polyline fill="none" stroke="black" points="83.21,-845.1 653.7,-845.1 "/>
<text text-anchor="middle" x="368.46" y="-828.5" font-family="Courier New" font-size="14.00">0x0000000000000000000000000000000000000000000000000000000000000000</text>
<text text-anchor="middle" x="368.46" y="-811.7" font-family="Courier New" font-size="14.00"> &#160;</text>
<polyline fill="none" stroke="black" points="83.21,-803.5 653.7,-803.5 "/>
<text text-anchor="middle" x="368.46" y="-786.9" font-family="Courier New" font-size="14.00">0x0000000000000000000000000000000000000000000000000000000000000000</text>
<text text-anchor="middle" x="368.46" y="-770.1" font-family="Courier New" font-size="14.00"> &#160;</text>
<polyline fill="none" stroke="black" points="83.21,-761.9 653.7,-761.9 "/>
<text text-anchor="middle" x="368.46" y="-745.3" font-family="Courier New" font-size="14.00">0x0000000000000000000000000000000000000000000000000000000000000000</text>
<text text-anchor="middle" x="368.46" y="-728.5" font-family="Courier New" font-size="14.00"> &#160;</text>
<polyline fill="none" stroke="black" points="83.21,-720.3 653.7,-720.3 "/>
<text text-anchor="middle" x="368.46" y="-703.7" font-family="Courier New" font-size="14.00">0x0000000000000000000000000000000000000000000000000000000000000000</text>
<text text-anchor="middle" x="368.46" y="-686.9" font-family="Courier New" font-size="14.00"> &#160;</text>
<polyline fill="none" stroke="black" points="83.21,-678.7 653.7,-678.7 "/>
<text text-anchor="middle" x="368.46" y="-662.1" font-family="Courier New" font-size="14.00"> </text>
<polyline fill="none" stroke="black" points="83.21,-653.9 653.7,-653.9 "/>
<text text-anchor="middle" x="368.46" y="-637.3" font-family="Courier New" font-size="14.00">0x0000000000000000000000000000000000000000000000000000000000000000</text>
<text text-anchor="middle" x="368.46" y="-620.5" font-family="Courier New" font-size="14.00"> &#160;</text>
<polyline fill="none" stroke="black" points="83.21,-612.3 653.7,-612.3 "/>
<text text-anchor="middle" x="368.46" y="-595.7" font-family="Courier New" font-size="14.00">0x0000000000000000000000000000000000000000000000000000000000000000</text>
<text text-anchor="middle" x="368.46" y="-578.9" font-family="Courier New" font-size="14.00"> &#160;</text>
<polyline fill="none" stroke="black" points="83.21,-570.7 653.7,-570.7 "/>
<text text-anchor="middle" x="368.46" y="-554.1" font-family="Courier New" font-size="14.00"> </text>
<polyline fill="none" stroke="black" points="83.21,-545.9 653.7,-545.9 "/>
<text text-anchor="middle" x="368.46" y="-529.3" font-family="Courier New" font-size="14.00"> </text>
<polyline fill="none" stroke="black" points="83.21,-521.1 653.7,-521.1 "/>
<text text-anchor="middle" x="368.46" y="-504.5" font-family="Courier New" font-size="14.00">0x0000000000000000000000000000000000000000000000000000000000000000</text>
<text text-anchor="middle" x="368.46" y="-487.7" font-family="Courier New" font-size="14.00"> &#160;</text>
<polyline fill="none" stroke="black" points="83.21,-479.5 653.7,-479.5 "/>
<text text-anchor="middle" x="368.46" y="-462.9" font-family="Courier New" font-size="14.00"> </text>
<polyline fill="none" stroke="black" points="83.21,-454.7 653.7,-454.7 "/>
<text text-anchor="middle" x="368.46" y="-438.1" font-family="Courier New" font-size="14.00">0x0000000000000000000000000000000000000000000000000000000000000000</text>
<text text-anchor="middle" x="368.46" y="-421.3" font-family="Courier New" font-size="14.00"> &#160;</text>
<polyline fill="none" stroke="black" points="83.21,-413.1 653.7,-413.1 "/>
<text text-anchor="middle" x="368.46" y="-396.5" font-family="Courier New" font-size="14.00">0x0000000000000000000000010000000000000000000000000000000000000000</text>
<text text-anchor="middle" x="368.46" y="-379.7" font-family="Courier New" font-size="14.00"> &#160;</text>
<polyline fill="none" stroke="black" points="83.21,-371.5 653.7,-371.5 "/>
<text text-anchor="middle" x="368.46" y="-354.9" font-family="Courier New" font-size="14.00"> </text>
<polyline fill="none" stroke="black" points="653.7,-346.7 653.7,-1002.7 "/>
<text text-anchor="middle" x="1064.16" y="-986.1" font-family="Courier New" font-size="14.00">type: &lt;inherited contract&gt;.variable (bytes)</text>
<text text-anchor="middle" x="1064.16" y="-969.3" font-family="Courier New" font-size="14.00">decoded data</text>
<polyline fill="none" stroke="black" points="653.7,-961.1 1474.63,-961.1 "/>
<text text-anchor="middle" x="732.91" y="-936.1" font-family="Courier New" font-size="14.00">unallocated (30)</text>
<polyline fill="none" stroke="black" points="812.12,-919.5 812.12,-961.1 "/>
<text text-anchor="middle" x="979.55" y="-944.5" font-family="Courier New" font-size="14.00">bool: Initializable._initializing (1)</text>
<text text-anchor="middle" x="979.55" y="-927.7" font-family="Courier New" font-size="14.00"> false &#160;</text>
<polyline fill="none" stroke="black" points="1146.97,-919.5 1146.97,-961.1 "/>
<text text-anchor="middle" x="1310.7" y="-944.5" font-family="Courier New" font-size="14.00">bool: Initializable._initialized (1)</text>
<text text-anchor="middle" x="1310.7" y="-927.7" font-family="Courier New" font-size="14.00"> true </text>
<polyline fill="none" stroke="black" points="653.7,-919.5 1474.63,-919.5 "/>
<text text-anchor="middle" x="1064.03" y="-902.9" font-family="Courier New" font-size="14.00">uint256[50]: ContextUpgradeable.__gap (1600)</text>
<polyline fill="none" stroke="black" points="653.7,-894.7 1474.63,-894.7 "/>
<text text-anchor="middle" x="1063.84" y="-878.1" font-family="Courier New" font-size="14.00">mapping(address=&gt;uint256): ERC20Upgradeable._balances (32)</text>
<polyline fill="none" stroke="black" points="653.7,-869.9 1474.63,-869.9 "/>
<text text-anchor="middle" x="1063.85" y="-853.3" font-family="Courier New" font-size="14.00">mapping(address=&gt;mapping(address=&gt;uint256)): ERC20Upgradeable._allowances (32)</text>
<polyline fill="none" stroke="black" points="653.7,-845.1 1474.63,-845.1 "/>
<text text-anchor="middle" x="1063.83" y="-828.5" font-family="Courier New" font-size="14.00">uint256: ERC20Upgradeable._totalSupply (32)</text>
<text text-anchor="middle" x="1063.83" y="-811.7" font-family="Courier New" font-size="14.00"> 0 </text>
<polyline fill="none" stroke="black" points="653.7,-803.5 1474.63,-803.5 "/>
<text text-anchor="middle" x="1063.73" y="-786.9" font-family="Courier New" font-size="14.00">string: ERC20Upgradeable._name (32)</text>
<text text-anchor="middle" x="1063.73" y="-770.1" font-family="Courier New" font-size="14.00"> &quot;&quot; </text>
<polyline fill="none" stroke="black" points="653.7,-761.9 1474.63,-761.9 "/>
<text text-anchor="middle" x="1064.13" y="-745.3" font-family="Courier New" font-size="14.00">string: ERC20Upgradeable._symbol (32)</text>
<text text-anchor="middle" x="1064.13" y="-728.5" font-family="Courier New" font-size="14.00"> &quot;&quot; </text>
<polyline fill="none" stroke="black" points="653.7,-720.3 1474.63,-720.3 "/>
<text text-anchor="middle" x="814.41" y="-695.3" font-family="Courier New" font-size="14.00">unallocated (31)</text>
<polyline fill="none" stroke="black" points="975.12,-678.7 975.12,-720.3 "/>
<text text-anchor="middle" x="1224.55" y="-703.7" font-family="Courier New" font-size="14.00">uint8: ERC20Upgradeable._decimals (1)</text>
<text text-anchor="middle" x="1224.55" y="-686.9" font-family="Courier New" font-size="14.00"> 0 </text>
<polyline fill="none" stroke="black" points="653.7,-678.7 1474.63,-678.7 "/>
<text text-anchor="middle" x="1064.13" y="-662.1" font-family="Courier New" font-size="14.00">uint256[44]: ERC20Upgradeable.__gap (1408)</text>
<polyline fill="none" stroke="black" points="653.7,-653.9 1474.63,-653.9 "/>
<text text-anchor="middle" x="1063.85" y="-637.3" font-family="Courier New" font-size="14.00">bytes32: EIP712Upgradeable._HASHED_NAME (32)</text>
<text text-anchor="middle" x="1063.85" y="-620.5" font-family="Courier New" font-size="14.00"> 0x0000000000000000000000000000000000000000000000000000000000000000 </text>
<polyline fill="none" stroke="black" points="653.7,-612.3 1474.63,-612.3 "/>
<text text-anchor="middle" x="1063.85" y="-595.7" font-family="Courier New" font-size="14.00">bytes32: EIP712Upgradeable._HASHED_VERSION (32)</text>
<text text-anchor="middle" x="1063.85" y="-578.9" font-family="Courier New" font-size="14.00"> 0x0000000000000000000000000000000000000000000000000000000000000000 </text>
<polyline fill="none" stroke="black" points="653.7,-570.7 1474.63,-570.7 "/>
<text text-anchor="middle" x="1063.83" y="-554.1" font-family="Courier New" font-size="14.00">uint256[50]: EIP712Upgradeable.__gap (1600)</text>
<polyline fill="none" stroke="black" points="653.7,-545.9 1474.63,-545.9 "/>
<text text-anchor="middle" x="1064.16" y="-529.3" font-family="Courier New" font-size="14.00">mapping(address=&gt;CountersUpgradeable.Counter): ERC20PermitUpgradeable._nonces (32)</text>
<polyline fill="none" stroke="black" points="653.7,-521.1 1474.63,-521.1 "/>
<text text-anchor="middle" x="1063.85" y="-504.5" font-family="Courier New" font-size="14.00">bytes32: ERC20PermitUpgradeable._PERMIT_TYPEHASH (32)</text>
<text text-anchor="middle" x="1063.85" y="-487.7" font-family="Courier New" font-size="14.00"> 0x0000000000000000000000000000000000000000000000000000000000000000 </text>
<polyline fill="none" stroke="black" points="653.7,-479.5 1474.63,-479.5 "/>
<text text-anchor="middle" x="1063.83" y="-462.9" font-family="Courier New" font-size="14.00">uint256[49]: ERC20PermitUpgradeable.__gap (1568)</text>
<polyline fill="none" stroke="black" points="653.7,-454.7 1474.63,-454.7 "/>
<text text-anchor="middle" x="799.91" y="-429.7" font-family="Courier New" font-size="14.00">unallocated (12)</text>
<polyline fill="none" stroke="black" points="946.12,-413.1 946.12,-454.7 "/>
<text text-anchor="middle" x="1209.95" y="-438.1" font-family="Courier New" font-size="14.00">address: L2GatewayToken.l2Gateway (20)</text>
<text text-anchor="middle" x="1209.95" y="-421.3" font-family="Courier New" font-size="14.00"> 0x0000000000000000000000000000000000000000 </text>
<polyline fill="none" stroke="black" points="653.7,-413.1 1474.63,-413.1 "/>
<text text-anchor="middle" x="728.91" y="-388.1" font-family="Courier New" font-size="14.00">unallocated (11)</text>
<polyline fill="none" stroke="black" points="804.12,-371.5 804.12,-413.1 "/>
<text text-anchor="middle" x="946.54" y="-396.5" font-family="Courier New" font-size="14.00">bool: Cloneable.isMasterCopy (1)</text>
<text text-anchor="middle" x="946.54" y="-379.7" font-family="Courier New" font-size="14.00"> true &#160;</text>
<polyline fill="none" stroke="black" points="1088.97,-371.5 1088.97,-413.1 "/>
<text text-anchor="middle" x="1281.8" y="-396.5" font-family="Courier New" font-size="14.00">address: L2GatewayToken.l1Address (20)</text>
<text text-anchor="middle" x="1281.8" y="-379.7" font-family="Courier New" font-size="14.00"> 0x0000000000000000000000000000000000000000 </text>
<polyline fill="none" stroke="black" points="653.7,-371.5 1474.63,-371.5 "/>
<text text-anchor="middle" x="1063.73" y="-354.9" font-family="Courier New" font-size="14.00">ERC20Getters: availableGetters (32)</text>
</g>
<!-- 1 -->
<g id="node2" class="node">
<title>1</title>
<polygon fill="#f2f2f2" stroke="black" points="1782.47,-1067.7 1782.47,-1325.3 2611.79,-1325.3 2611.79,-1067.7 1782.47,-1067.7"/>
<text text-anchor="middle" x="2197.13" y="-1308.7" font-family="Courier New" font-size="14.00">uint256[50]: __gap &lt;&lt;Array&gt;&gt;</text>
<polyline fill="none" stroke="black" points="1782.47,-1300.5 2611.79,-1300.5 "/>
<text text-anchor="middle" x="1811.47" y="-1283.9" font-family="Courier New" font-size="14.00">slot</text>
<text text-anchor="middle" x="1811.47" y="-1267.1" font-family="Courier New" font-size="14.00"> &#160;</text>
<polyline fill="none" stroke="black" points="1782.47,-1258.9 1840.47,-1258.9 "/>
<text text-anchor="middle" x="1811.47" y="-1242.3" font-family="Courier New" font-size="14.00">1</text>
<text text-anchor="middle" x="1811.47" y="-1225.5" font-family="Courier New" font-size="14.00"> &#160;</text>
<polyline fill="none" stroke="black" points="1782.47,-1217.3 1840.47,-1217.3 "/>
<text text-anchor="middle" x="1811.47" y="-1200.7" font-family="Courier New" font-size="14.00">2</text>
<text text-anchor="middle" x="1811.47" y="-1183.9" font-family="Courier New" font-size="14.00"> &#160;</text>
<polyline fill="none" stroke="black" points="1782.47,-1175.7 1840.47,-1175.7 "/>
<text text-anchor="middle" x="1811.47" y="-1159.1" font-family="Courier New" font-size="14.00">3&#45;48 </text>
<polyline fill="none" stroke="black" points="1782.47,-1150.9 1840.47,-1150.9 "/>
<text text-anchor="middle" x="1811.47" y="-1134.3" font-family="Courier New" font-size="14.00">49</text>
<text text-anchor="middle" x="1811.47" y="-1117.5" font-family="Courier New" font-size="14.00"> &#160;</text>
<polyline fill="none" stroke="black" points="1782.47,-1109.3 1840.47,-1109.3 "/>
<text text-anchor="middle" x="1811.47" y="-1092.7" font-family="Courier New" font-size="14.00">50</text>
<text text-anchor="middle" x="1811.47" y="-1075.9" font-family="Courier New" font-size="14.00"> </text>
<polyline fill="none" stroke="black" points="1840.47,-1067.7 1840.47,-1300.5 "/>
<text text-anchor="middle" x="2125.72" y="-1283.9" font-family="Courier New" font-size="14.00">value</text>
<text text-anchor="middle" x="2125.72" y="-1267.1" font-family="Courier New" font-size="14.00"> &#160;</text>
<polyline fill="none" stroke="black" points="1840.47,-1258.9 2410.96,-1258.9 "/>
<text text-anchor="middle" x="2125.72" y="-1242.3" font-family="Courier New" font-size="14.00">0x0000000000000000000000000000000000000000000000000000000000000000</text>
<text text-anchor="middle" x="2125.72" y="-1225.5" font-family="Courier New" font-size="14.00"> &#160;</text>
<polyline fill="none" stroke="black" points="1840.47,-1217.3 2410.96,-1217.3 "/>
<text text-anchor="middle" x="2125.72" y="-1200.7" font-family="Courier New" font-size="14.00">0x0000000000000000000000000000000000000000000000000000000000000000</text>
<text text-anchor="middle" x="2125.72" y="-1183.9" font-family="Courier New" font-size="14.00"> &#160;</text>
<polyline fill="none" stroke="black" points="1840.47,-1175.7 2410.96,-1175.7 "/>
<text text-anchor="middle" x="2125.72" y="-1159.1" font-family="Courier New" font-size="14.00"> </text>
<polyline fill="none" stroke="black" points="1840.47,-1150.9 2410.96,-1150.9 "/>
<text text-anchor="middle" x="2125.72" y="-1134.3" font-family="Courier New" font-size="14.00">0x0000000000000000000000000000000000000000000000000000000000000000</text>
<text text-anchor="middle" x="2125.72" y="-1117.5" font-family="Courier New" font-size="14.00"> &#160;</text>
<polyline fill="none" stroke="black" points="1840.47,-1109.3 2410.96,-1109.3 "/>
<text text-anchor="middle" x="2125.72" y="-1092.7" font-family="Courier New" font-size="14.00">0x0000000000000000000000000000000000000000000000000000000000000000</text>
<text text-anchor="middle" x="2125.72" y="-1075.9" font-family="Courier New" font-size="14.00"> </text>
<polyline fill="none" stroke="black" points="2410.96,-1067.7 2410.96,-1300.5 "/>
<text text-anchor="middle" x="2511.38" y="-1283.9" font-family="Courier New" font-size="14.00">type: variable (bytes)</text>
<text text-anchor="middle" x="2511.38" y="-1267.1" font-family="Courier New" font-size="14.00">decoded data</text>
<polyline fill="none" stroke="black" points="2410.96,-1258.9 2611.79,-1258.9 "/>
<text text-anchor="middle" x="2511.37" y="-1242.3" font-family="Courier New" font-size="14.00">uint256 (32)</text>
<text text-anchor="middle" x="2511.37" y="-1225.5" font-family="Courier New" font-size="14.00"> 0 </text>
<polyline fill="none" stroke="black" points="2410.96,-1217.3 2611.79,-1217.3 "/>
<text text-anchor="middle" x="2511.37" y="-1200.7" font-family="Courier New" font-size="14.00">uint256 (32)</text>
<text text-anchor="middle" x="2511.37" y="-1183.9" font-family="Courier New" font-size="14.00"> 0 </text>
<polyline fill="none" stroke="black" points="2410.96,-1175.7 2611.79,-1175.7 "/>
<text text-anchor="middle" x="2511.17" y="-1159.1" font-family="Courier New" font-size="14.00">&#45;&#45;&#45;&#45; (1472)</text>
<polyline fill="none" stroke="black" points="2410.96,-1150.9 2611.79,-1150.9 "/>
<text text-anchor="middle" x="2511.37" y="-1134.3" font-family="Courier New" font-size="14.00">uint256 (32)</text>
<text text-anchor="middle" x="2511.37" y="-1117.5" font-family="Courier New" font-size="14.00"> 0 </text>
<polyline fill="none" stroke="black" points="2410.96,-1109.3 2611.79,-1109.3 "/>
<text text-anchor="middle" x="2511.37" y="-1092.7" font-family="Courier New" font-size="14.00">uint256 (32)</text>
<text text-anchor="middle" x="2511.37" y="-1075.9" font-family="Courier New" font-size="14.00"> 0 </text>
</g>
<!-- 7&#45;&gt;1 -->
<g id="edge1" class="edge">
<title>7:8&#45;&gt;1</title>
<path fill="none" stroke="black" d="M1474.63,-907.5C1543.19,-907.5 1461.3,-1009.89 1510.63,-1057.5 1581.37,-1125.78 1675.95,-1164.77 1772.19,-1186.18"/>
<polygon fill="black" stroke="black" points="1771.6,-1189.63 1782.11,-1188.32 1773.08,-1182.79 1771.6,-1189.63"/>
</g>
<!-- 2 -->
<g id="node3" class="node">
<title>2</title>
<polygon fill="#f2f2f2" stroke="black" points="1778.27,-790.7 1778.27,-1048.3 2616,-1048.3 2616,-790.7 1778.27,-790.7"/>
<text text-anchor="middle" x="2197.13" y="-1031.7" font-family="Courier New" font-size="14.00">uint256[44]: __gap &lt;&lt;Array&gt;&gt;</text>
<polyline fill="none" stroke="black" points="1778.27,-1023.5 2616,-1023.5 "/>
<text text-anchor="middle" x="1811.47" y="-1006.9" font-family="Courier New" font-size="14.00">slot</text>
<text text-anchor="middle" x="1811.47" y="-990.1" font-family="Courier New" font-size="14.00"> &#160;</text>
<polyline fill="none" stroke="black" points="1778.27,-981.9 1844.67,-981.9 "/>
<text text-anchor="middle" x="1811.47" y="-965.3" font-family="Courier New" font-size="14.00">57</text>
<text text-anchor="middle" x="1811.47" y="-948.5" font-family="Courier New" font-size="14.00"> &#160;</text>
<polyline fill="none" stroke="black" points="1778.27,-940.3 1844.67,-940.3 "/>
<text text-anchor="middle" x="1811.47" y="-923.7" font-family="Courier New" font-size="14.00">58</text>
<text text-anchor="middle" x="1811.47" y="-906.9" font-family="Courier New" font-size="14.00"> &#160;</text>
<polyline fill="none" stroke="black" points="1778.27,-898.7 1844.67,-898.7 "/>
<text text-anchor="middle" x="1811.47" y="-882.1" font-family="Courier New" font-size="14.00">59&#45;98 </text>
<polyline fill="none" stroke="black" points="1778.27,-873.9 1844.67,-873.9 "/>
<text text-anchor="middle" x="1811.47" y="-857.3" font-family="Courier New" font-size="14.00">99</text>
<text text-anchor="middle" x="1811.47" y="-840.5" font-family="Courier New" font-size="14.00"> &#160;</text>
<polyline fill="none" stroke="black" points="1778.27,-832.3 1844.67,-832.3 "/>
<text text-anchor="middle" x="1811.47" y="-815.7" font-family="Courier New" font-size="14.00">100</text>
<text text-anchor="middle" x="1811.47" y="-798.9" font-family="Courier New" font-size="14.00"> </text>
<polyline fill="none" stroke="black" points="1844.67,-790.7 1844.67,-1023.5 "/>
<text text-anchor="middle" x="2129.92" y="-1006.9" font-family="Courier New" font-size="14.00">value</text>
<text text-anchor="middle" x="2129.92" y="-990.1" font-family="Courier New" font-size="14.00"> &#160;</text>
<polyline fill="none" stroke="black" points="1844.67,-981.9 2415.17,-981.9 "/>
<text text-anchor="middle" x="2129.92" y="-965.3" font-family="Courier New" font-size="14.00">0x0000000000000000000000000000000000000000000000000000000000000000</text>
<text text-anchor="middle" x="2129.92" y="-948.5" font-family="Courier New" font-size="14.00"> &#160;</text>
<polyline fill="none" stroke="black" points="1844.67,-940.3 2415.17,-940.3 "/>
<text text-anchor="middle" x="2129.92" y="-923.7" font-family="Courier New" font-size="14.00">0x0000000000000000000000000000000000000000000000000000000000000000</text>
<text text-anchor="middle" x="2129.92" y="-906.9" font-family="Courier New" font-size="14.00"> &#160;</text>
<polyline fill="none" stroke="black" points="1844.67,-898.7 2415.17,-898.7 "/>
<text text-anchor="middle" x="2129.92" y="-882.1" font-family="Courier New" font-size="14.00"> </text>
<polyline fill="none" stroke="black" points="1844.67,-873.9 2415.17,-873.9 "/>
<text text-anchor="middle" x="2129.92" y="-857.3" font-family="Courier New" font-size="14.00">0x0000000000000000000000000000000000000000000000000000000000000000</text>
<text text-anchor="middle" x="2129.92" y="-840.5" font-family="Courier New" font-size="14.00"> &#160;</text>
<polyline fill="none" stroke="black" points="1844.67,-832.3 2415.17,-832.3 "/>
<text text-anchor="middle" x="2129.92" y="-815.7" font-family="Courier New" font-size="14.00">0x0000000000000000000000000000000000000000000000000000000000000000</text>
<text text-anchor="middle" x="2129.92" y="-798.9" font-family="Courier New" font-size="14.00"> </text>
<polyline fill="none" stroke="black" points="2415.17,-790.7 2415.17,-1023.5 "/>
<text text-anchor="middle" x="2515.58" y="-1006.9" font-family="Courier New" font-size="14.00">type: variable (bytes)</text>
<text text-anchor="middle" x="2515.58" y="-990.1" font-family="Courier New" font-size="14.00">decoded data</text>
<polyline fill="none" stroke="black" points="2415.17,-981.9 2616,-981.9 "/>
<text text-anchor="middle" x="2515.57" y="-965.3" font-family="Courier New" font-size="14.00">uint256 (32)</text>
<text text-anchor="middle" x="2515.57" y="-948.5" font-family="Courier New" font-size="14.00"> 0 </text>
<polyline fill="none" stroke="black" points="2415.17,-940.3 2616,-940.3 "/>
<text text-anchor="middle" x="2515.57" y="-923.7" font-family="Courier New" font-size="14.00">uint256 (32)</text>
<text text-anchor="middle" x="2515.57" y="-906.9" font-family="Courier New" font-size="14.00"> 0 </text>
<polyline fill="none" stroke="black" points="2415.17,-898.7 2616,-898.7 "/>
<text text-anchor="middle" x="2515.37" y="-882.1" font-family="Courier New" font-size="14.00">&#45;&#45;&#45;&#45; (1280)</text>
<polyline fill="none" stroke="black" points="2415.17,-873.9 2616,-873.9 "/>
<text text-anchor="middle" x="2515.57" y="-857.3" font-family="Courier New" font-size="14.00">uint256 (32)</text>
<text text-anchor="middle" x="2515.57" y="-840.5" font-family="Courier New" font-size="14.00"> 0 </text>
<polyline fill="none" stroke="black" points="2415.17,-832.3 2616,-832.3 "/>
<text text-anchor="middle" x="2515.57" y="-815.7" font-family="Courier New" font-size="14.00">uint256 (32)</text>
<text text-anchor="middle" x="2515.57" y="-798.9" font-family="Courier New" font-size="14.00"> 0 </text>
</g>
<!-- 7&#45;&gt;2 -->
<g id="edge2" class="edge">
<title>7:20&#45;&gt;2</title>
<path fill="none" stroke="black" d="M1474.63,-666.5C1527.76,-666.5 1471.12,-744.97 1510.63,-780.5 1581.8,-844.52 1674.15,-882.29 1767.88,-903.91"/>
<polygon fill="black" stroke="black" points="1767.31,-907.37 1777.84,-906.14 1768.85,-900.54 1767.31,-907.37"/>
</g>
<!-- 3 -->
<g id="node4" class="node">
<title>3</title>
<polygon fill="#f2f2f2" stroke="black" points="1769.87,-513.7 1769.87,-771.3 2624.4,-771.3 2624.4,-513.7 1769.87,-513.7"/>
<text text-anchor="middle" x="2197.13" y="-754.7" font-family="Courier New" font-size="14.00">uint256[50]: __gap &lt;&lt;Array&gt;&gt;</text>
<polyline fill="none" stroke="black" points="1769.87,-746.5 2624.4,-746.5 "/>
<text text-anchor="middle" x="1811.47" y="-729.9" font-family="Courier New" font-size="14.00">slot</text>
<text text-anchor="middle" x="1811.47" y="-713.1" font-family="Courier New" font-size="14.00"> &#160;</text>
<polyline fill="none" stroke="black" points="1769.87,-704.9 1853.08,-704.9 "/>
<text text-anchor="middle" x="1811.47" y="-688.3" font-family="Courier New" font-size="14.00">103</text>
<text text-anchor="middle" x="1811.47" y="-671.5" font-family="Courier New" font-size="14.00"> &#160;</text>
<polyline fill="none" stroke="black" points="1769.87,-663.3 1853.08,-663.3 "/>
<text text-anchor="middle" x="1811.47" y="-646.7" font-family="Courier New" font-size="14.00">104</text>
<text text-anchor="middle" x="1811.47" y="-629.9" font-family="Courier New" font-size="14.00"> &#160;</text>
<polyline fill="none" stroke="black" points="1769.87,-621.7 1853.08,-621.7 "/>
<text text-anchor="middle" x="1811.47" y="-605.1" font-family="Courier New" font-size="14.00">105&#45;150 </text>
<polyline fill="none" stroke="black" points="1769.87,-596.9 1853.08,-596.9 "/>
<text text-anchor="middle" x="1811.47" y="-580.3" font-family="Courier New" font-size="14.00">151</text>
<text text-anchor="middle" x="1811.47" y="-563.5" font-family="Courier New" font-size="14.00"> &#160;</text>
<polyline fill="none" stroke="black" points="1769.87,-555.3 1853.08,-555.3 "/>
<text text-anchor="middle" x="1811.47" y="-538.7" font-family="Courier New" font-size="14.00">152</text>
<text text-anchor="middle" x="1811.47" y="-521.9" font-family="Courier New" font-size="14.00"> </text>
<polyline fill="none" stroke="black" points="1853.08,-513.7 1853.08,-746.5 "/>
<text text-anchor="middle" x="2138.32" y="-729.9" font-family="Courier New" font-size="14.00">value</text>
<text text-anchor="middle" x="2138.32" y="-713.1" font-family="Courier New" font-size="14.00"> &#160;</text>
<polyline fill="none" stroke="black" points="1853.08,-704.9 2423.57,-704.9 "/>
<text text-anchor="middle" x="2138.32" y="-688.3" font-family="Courier New" font-size="14.00">0x0000000000000000000000000000000000000000000000000000000000000000</text>
<text text-anchor="middle" x="2138.32" y="-671.5" font-family="Courier New" font-size="14.00"> &#160;</text>
<polyline fill="none" stroke="black" points="1853.08,-663.3 2423.57,-663.3 "/>
<text text-anchor="middle" x="2138.32" y="-646.7" font-family="Courier New" font-size="14.00">0x0000000000000000000000000000000000000000000000000000000000000000</text>
<text text-anchor="middle" x="2138.32" y="-629.9" font-family="Courier New" font-size="14.00"> &#160;</text>
<polyline fill="none" stroke="black" points="1853.08,-621.7 2423.57,-621.7 "/>
<text text-anchor="middle" x="2138.32" y="-605.1" font-family="Courier New" font-size="14.00"> </text>
<polyline fill="none" stroke="black" points="1853.08,-596.9 2423.57,-596.9 "/>
<text text-anchor="middle" x="2138.32" y="-580.3" font-family="Courier New" font-size="14.00">0x0000000000000000000000000000000000000000000000000000000000000000</text>
<text text-anchor="middle" x="2138.32" y="-563.5" font-family="Courier New" font-size="14.00"> &#160;</text>
<polyline fill="none" stroke="black" points="1853.08,-555.3 2423.57,-555.3 "/>
<text text-anchor="middle" x="2138.32" y="-538.7" font-family="Courier New" font-size="14.00">0x0000000000000000000000000000000000000000000000000000000000000000</text>
<text text-anchor="middle" x="2138.32" y="-521.9" font-family="Courier New" font-size="14.00"> </text>
<polyline fill="none" stroke="black" points="2423.57,-513.7 2423.57,-746.5 "/>
<text text-anchor="middle" x="2523.98" y="-729.9" font-family="Courier New" font-size="14.00">type: variable (bytes)</text>
<text text-anchor="middle" x="2523.98" y="-713.1" font-family="Courier New" font-size="14.00">decoded data</text>
<polyline fill="none" stroke="black" points="2423.57,-704.9 2624.4,-704.9 "/>
<text text-anchor="middle" x="2523.97" y="-688.3" font-family="Courier New" font-size="14.00">uint256 (32)</text>
<text text-anchor="middle" x="2523.97" y="-671.5" font-family="Courier New" font-size="14.00"> 0 </text>
<polyline fill="none" stroke="black" points="2423.57,-663.3 2624.4,-663.3 "/>
<text text-anchor="middle" x="2523.97" y="-646.7" font-family="Courier New" font-size="14.00">uint256 (32)</text>
<text text-anchor="middle" x="2523.97" y="-629.9" font-family="Courier New" font-size="14.00"> 0 </text>
<polyline fill="none" stroke="black" points="2423.57,-621.7 2624.4,-621.7 "/>
<text text-anchor="middle" x="2523.77" y="-605.1" font-family="Courier New" font-size="14.00">&#45;&#45;&#45;&#45; (1472)</text>
<polyline fill="none" stroke="black" points="2423.57,-596.9 2624.4,-596.9 "/>
<text text-anchor="middle" x="2523.97" y="-580.3" font-family="Courier New" font-size="14.00">uint256 (32)</text>
<text text-anchor="middle" x="2523.97" y="-563.5" font-family="Courier New" font-size="14.00"> 0 </text>
<polyline fill="none" stroke="black" points="2423.57,-555.3 2624.4,-555.3 "/>
<text text-anchor="middle" x="2523.97" y="-538.7" font-family="Courier New" font-size="14.00">uint256 (32)</text>
<text text-anchor="middle" x="2523.97" y="-521.9" font-family="Courier New" font-size="14.00"> 0 </text>
</g>
<!-- 7&#45;&gt;3 -->
<g id="edge3" class="edge">
<title>7:28&#45;&gt;3</title>
<path fill="none" stroke="black" d="M1474.63,-558.5C1567.19,-558.5 1665.99,-565.41 1759.84,-575.26"/>
<polygon fill="black" stroke="black" points="1759.47,-578.74 1769.79,-576.31 1760.21,-571.78 1759.47,-578.74"/>
</g>
<!-- 4 -->
<g id="node5" class="node">
<title>4</title>
<polygon fill="#f2f2f2" stroke="black" points="2034.51,-403.9 2034.51,-495.1 2359.75,-495.1 2359.75,-403.9 2034.51,-403.9"/>
<text text-anchor="middle" x="2197.13" y="-478.5" font-family="Courier New" font-size="14.00">Counter &lt;&lt;Struct&gt;&gt;</text>
<polyline fill="none" stroke="black" points="2034.51,-470.3 2359.75,-470.3 "/>
<text text-anchor="middle" x="2067.71" y="-453.7" font-family="Courier New" font-size="14.00">offset</text>
<text text-anchor="middle" x="2067.71" y="-436.9" font-family="Courier New" font-size="14.00"> &#160;</text>
<polyline fill="none" stroke="black" points="2034.51,-428.7 2100.92,-428.7 "/>
<text text-anchor="middle" x="2067.71" y="-412.1" font-family="Courier New" font-size="14.00">0</text>
<polyline fill="none" stroke="black" points="2100.92,-403.9 2100.92,-470.3 "/>
<text text-anchor="middle" x="2129.92" y="-453.7" font-family="Courier New" font-size="14.00">value</text>
<text text-anchor="middle" x="2129.92" y="-436.9" font-family="Courier New" font-size="14.00"> &#160;</text>
<polyline fill="none" stroke="black" points="2100.92,-428.7 2158.92,-428.7 "/>
<text text-anchor="middle" x="2129.92" y="-412.1" font-family="Courier New" font-size="14.00"> </text>
<polyline fill="none" stroke="black" points="2158.92,-403.9 2158.92,-470.3 "/>
<text text-anchor="middle" x="2259.34" y="-453.7" font-family="Courier New" font-size="14.00">type: variable (bytes)</text>
<text text-anchor="middle" x="2259.34" y="-436.9" font-family="Courier New" font-size="14.00">decoded data</text>
<polyline fill="none" stroke="black" points="2158.92,-428.7 2359.75,-428.7 "/>
<text text-anchor="middle" x="2258.94" y="-412.1" font-family="Courier New" font-size="14.00">uint256: _value (32)</text>
</g>
<!-- 7&#45;&gt;4 -->
<g id="edge4" class="edge">
<title>7:30&#45;&gt;4</title>
<path fill="none" stroke="black" d="M1474.63,-533.5C1495.17,-533.5 1491.54,-512.1 1510.63,-504.5 1676.08,-438.59 1881.47,-430.82 2024.07,-435.81"/>
<polygon fill="black" stroke="black" points="2024.11,-439.31 2034.23,-436.19 2024.37,-432.31 2024.11,-439.31"/>
</g>
<!-- 5 -->
<g id="node6" class="node">
<title>5</title>
<polygon fill="#f2f2f2" stroke="black" points="1769.87,-127.7 1769.87,-385.3 2624.4,-385.3 2624.4,-127.7 1769.87,-127.7"/>
<text text-anchor="middle" x="2197.13" y="-368.7" font-family="Courier New" font-size="14.00">uint256[49]: __gap &lt;&lt;Array&gt;&gt;</text>
<polyline fill="none" stroke="black" points="1769.87,-360.5 2624.4,-360.5 "/>
<text text-anchor="middle" x="1811.47" y="-343.9" font-family="Courier New" font-size="14.00">slot</text>
<text text-anchor="middle" x="1811.47" y="-327.1" font-family="Courier New" font-size="14.00"> &#160;</text>
<polyline fill="none" stroke="black" points="1769.87,-318.9 1853.08,-318.9 "/>
<text text-anchor="middle" x="1811.47" y="-302.3" font-family="Courier New" font-size="14.00">155</text>
<text text-anchor="middle" x="1811.47" y="-285.5" font-family="Courier New" font-size="14.00"> &#160;</text>
<polyline fill="none" stroke="black" points="1769.87,-277.3 1853.08,-277.3 "/>
<text text-anchor="middle" x="1811.47" y="-260.7" font-family="Courier New" font-size="14.00">156</text>
<text text-anchor="middle" x="1811.47" y="-243.9" font-family="Courier New" font-size="14.00"> &#160;</text>
<polyline fill="none" stroke="black" points="1769.87,-235.7 1853.08,-235.7 "/>
<text text-anchor="middle" x="1811.47" y="-219.1" font-family="Courier New" font-size="14.00">157&#45;201 </text>
<polyline fill="none" stroke="black" points="1769.87,-210.9 1853.08,-210.9 "/>
<text text-anchor="middle" x="1811.47" y="-194.3" font-family="Courier New" font-size="14.00">202</text>
<text text-anchor="middle" x="1811.47" y="-177.5" font-family="Courier New" font-size="14.00"> &#160;</text>
<polyline fill="none" stroke="black" points="1769.87,-169.3 1853.08,-169.3 "/>
<text text-anchor="middle" x="1811.47" y="-152.7" font-family="Courier New" font-size="14.00">203</text>
<text text-anchor="middle" x="1811.47" y="-135.9" font-family="Courier New" font-size="14.00"> </text>
<polyline fill="none" stroke="black" points="1853.08,-127.7 1853.08,-360.5 "/>
<text text-anchor="middle" x="2138.32" y="-343.9" font-family="Courier New" font-size="14.00">value</text>
<text text-anchor="middle" x="2138.32" y="-327.1" font-family="Courier New" font-size="14.00"> &#160;</text>
<polyline fill="none" stroke="black" points="1853.08,-318.9 2423.57,-318.9 "/>
<text text-anchor="middle" x="2138.32" y="-302.3" font-family="Courier New" font-size="14.00">0x0000000000000000000000000000000000000000000000000000000000000000</text>
<text text-anchor="middle" x="2138.32" y="-285.5" font-family="Courier New" font-size="14.00"> &#160;</text>
<polyline fill="none" stroke="black" points="1853.08,-277.3 2423.57,-277.3 "/>
<text text-anchor="middle" x="2138.32" y="-260.7" font-family="Courier New" font-size="14.00">0x0000000000000000000000000000000000000000000000000000000000000000</text>
<text text-anchor="middle" x="2138.32" y="-243.9" font-family="Courier New" font-size="14.00"> &#160;</text>
<polyline fill="none" stroke="black" points="1853.08,-235.7 2423.57,-235.7 "/>
<text text-anchor="middle" x="2138.32" y="-219.1" font-family="Courier New" font-size="14.00"> </text>
<polyline fill="none" stroke="black" points="1853.08,-210.9 2423.57,-210.9 "/>
<text text-anchor="middle" x="2138.32" y="-194.3" font-family="Courier New" font-size="14.00">0x0000000000000000000000000000000000000000000000000000000000000000</text>
<text text-anchor="middle" x="2138.32" y="-177.5" font-family="Courier New" font-size="14.00"> &#160;</text>
<polyline fill="none" stroke="black" points="1853.08,-169.3 2423.57,-169.3 "/>
<text text-anchor="middle" x="2138.32" y="-152.7" font-family="Courier New" font-size="14.00">0x0000000000000000000000000000000000000000000000000000000000000000</text>
<text text-anchor="middle" x="2138.32" y="-135.9" font-family="Courier New" font-size="14.00"> </text>
<polyline fill="none" stroke="black" points="2423.57,-127.7 2423.57,-360.5 "/>
<text text-anchor="middle" x="2523.98" y="-343.9" font-family="Courier New" font-size="14.00">type: variable (bytes)</text>
<text text-anchor="middle" x="2523.98" y="-327.1" font-family="Courier New" font-size="14.00">decoded data</text>
<polyline fill="none" stroke="black" points="2423.57,-318.9 2624.4,-318.9 "/>
<text text-anchor="middle" x="2523.97" y="-302.3" font-family="Courier New" font-size="14.00">uint256 (32)</text>
<text text-anchor="middle" x="2523.97" y="-285.5" font-family="Courier New" font-size="14.00"> 0 </text>
<polyline fill="none" stroke="black" points="2423.57,-277.3 2624.4,-277.3 "/>
<text text-anchor="middle" x="2523.97" y="-260.7" font-family="Courier New" font-size="14.00">uint256 (32)</text>
<text text-anchor="middle" x="2523.97" y="-243.9" font-family="Courier New" font-size="14.00"> 0 </text>
<polyline fill="none" stroke="black" points="2423.57,-235.7 2624.4,-235.7 "/>
<text text-anchor="middle" x="2523.77" y="-219.1" font-family="Courier New" font-size="14.00">&#45;&#45;&#45;&#45; (1440)</text>
<polyline fill="none" stroke="black" points="2423.57,-210.9 2624.4,-210.9 "/>
<text text-anchor="middle" x="2523.97" y="-194.3" font-family="Courier New" font-size="14.00">uint256 (32)</text>
<text text-anchor="middle" x="2523.97" y="-177.5" font-family="Courier New" font-size="14.00"> 0 </text>
<polyline fill="none" stroke="black" points="2423.57,-169.3 2624.4,-169.3 "/>
<text text-anchor="middle" x="2523.97" y="-152.7" font-family="Courier New" font-size="14.00">uint256 (32)</text>
<text text-anchor="middle" x="2523.97" y="-135.9" font-family="Courier New" font-size="14.00"> 0 </text>
</g>
<!-- 7&#45;&gt;5 -->
<g id="edge5" class="edge">
<title>7:37&#45;&gt;5</title>
<path fill="none" stroke="black" d="M1474.63,-467.5C1510.8,-467.5 1481.95,-416.56 1510.63,-394.5 1582.58,-339.16 1670.99,-304.37 1760.09,-282.85"/>
<polygon fill="black" stroke="black" points="1760.91,-286.26 1769.84,-280.55 1759.3,-279.44 1760.91,-286.26"/>
</g>
<!-- 6 -->
<g id="node7" class="node">
<title>6</title>
<polygon fill="#f2f2f2" stroke="black" points="1510.63,-0.5 1510.63,-108.5 2883.63,-108.5 2883.63,-0.5 1510.63,-0.5"/>
<text text-anchor="middle" x="2197.13" y="-91.9" font-family="Courier New" font-size="14.00">ERC20Getters &lt;&lt;Struct&gt;&gt;</text>
<polyline fill="none" stroke="black" points="1510.63,-83.7 2883.63,-83.7 "/>
<text text-anchor="middle" x="1535.43" y="-67.1" font-family="Courier New" font-size="14.00">slot</text>
<text text-anchor="middle" x="1535.43" y="-50.3" font-family="Courier New" font-size="14.00"> &#160;</text>
<polyline fill="none" stroke="black" points="1510.63,-42.1 1560.23,-42.1 "/>
<text text-anchor="middle" x="1535.43" y="-25.5" font-family="Courier New" font-size="14.00">206</text>
<text text-anchor="middle" x="1535.43" y="-8.7" font-family="Courier New" font-size="14.00"> </text>
<polyline fill="none" stroke="black" points="1560.23,-0.5 1560.23,-83.7 "/>
<text text-anchor="middle" x="1845.48" y="-67.1" font-family="Courier New" font-size="14.00">value</text>
<text text-anchor="middle" x="1845.48" y="-50.3" font-family="Courier New" font-size="14.00"> &#160;</text>
<polyline fill="none" stroke="black" points="1560.23,-42.1 2130.72,-42.1 "/>
<text text-anchor="middle" x="1845.48" y="-25.5" font-family="Courier New" font-size="14.00">0x0000000000000000000000000000000000000000000000000000000000000000</text>
<text text-anchor="middle" x="1845.48" y="-8.7" font-family="Courier New" font-size="14.00"> </text>
<polyline fill="none" stroke="black" points="2130.72,-0.5 2130.72,-83.7 "/>
<text text-anchor="middle" x="2507.18" y="-67.1" font-family="Courier New" font-size="14.00">type: variable (bytes)</text>
<text text-anchor="middle" x="2507.18" y="-50.3" font-family="Courier New" font-size="14.00">decoded data</text>
<polyline fill="none" stroke="black" points="2130.72,-42.1 2883.63,-42.1 "/>
<text text-anchor="middle" x="2205.93" y="-17.1" font-family="Courier New" font-size="14.00">unallocated (29)</text>
<polyline fill="none" stroke="black" points="2281.14,-0.5 2281.14,-42.1 "/>
<text text-anchor="middle" x="2381.56" y="-25.5" font-family="Courier New" font-size="14.00">bool: ignoreSymbol (1)</text>
<text text-anchor="middle" x="2381.56" y="-8.7" font-family="Courier New" font-size="14.00"> false &#160;</text>
<polyline fill="none" stroke="black" points="2481.97,-0.5 2481.97,-42.1 "/>
<text text-anchor="middle" x="2573.99" y="-25.5" font-family="Courier New" font-size="14.00">bool: ignoreName (1)</text>
<text text-anchor="middle" x="2573.99" y="-8.7" font-family="Courier New" font-size="14.00"> false &#160;</text>
<polyline fill="none" stroke="black" points="2666,-0.5 2666,-42.1 "/>
<text text-anchor="middle" x="2774.82" y="-25.5" font-family="Courier New" font-size="14.00">bool: ignoreDecimals (1)</text>
<text text-anchor="middle" x="2774.82" y="-8.7" font-family="Courier New" font-size="14.00"> false </text>
</g>
<!-- 7&#45;&gt;6 -->
<g id="edge6" class="edge">
<title>7:44&#45;&gt;6</title>
<path fill="none" stroke="black" d="M1474.31,-359.5C1528.47,-359.5 1471.26,-155.7 1510.63,-118.5 1511.75,-117.44 1512.87,-116.39 1514,-115.35"/>
<polygon fill="black" stroke="black" points="1516.43,-117.88 1521.56,-108.62 1511.77,-112.66 1516.43,-117.88"/>
</g>
</g>
</svg>
